<svg xmlns="http://www.w3.org/2000/svg" width="197" height="180" viewBox="0 0 197 180">
    <g fill="none" fill-rule="evenodd">
        <path fill="#ADB5BD" d="M94.35 6.02A88916.33 88916.33 0 0 1 1.194 58.294c-.017 10.632-.035 40.828-.052 51.46 16.785-9.369 49.764-27.806 93.14-52.118.022-10.684.044-40.932.066-51.616"/>
        <path fill="#FFF" d="M93.65 7.214C78.477 15.74 63.3 24.263 48.121 32.78c-15.408 8.645-30.818 17.286-46.23 25.924-.008 5.377-.017 15.216-.025 25.09-.008 9.57-.016 19.17-.025 24.773 8.94-4.992 22.982-12.84 41.795-23.366 14.383-8.049 31.191-17.46 49.951-27.976.011-5.458.022-15.471.033-25.474.01-9.49.02-18.97.03-24.537zM47.438 31.56c15.527-8.711 31.05-17.428 46.57-26.15l1.04-.585-.003 1.194c-.01 5.328-.021 15.524-.032 25.73-.011 10.26-.023 20.53-.033 25.886l-.001.41-.354.199a81745.529 81745.529 0 0 1-50.307 28.174 48871.24 48871.24 0 0 1-42.836 23.945l-1.037.579.002-1.188c.008-5.356.017-15.677.026-25.96C.48 73.665.49 63.57.499 58.294v-.41l.355-.2c15.53-8.704 31.058-17.411 46.584-26.123z"/>
        <path fill="#4630EB" d="M192.307 75.205l-62.553 35.101a.698.698 0 0 1-.691-.004L83.91 84.965c7.887-4.419 16.717-9.366 26.776-15.005.01-4.463.019-12.341.028-20.781l18.356-10.3a.698.698 0 0 1 .691.004l62.55 35.1a.698.698 0 0 1-.005 1.222"/>
        <path fill="#FFF" d="M66.154 143.718V74.593a.7.7 0 0 1 1.074-.591l62.526 35.086a.698.698 0 0 1 .357.61v69.125a.7.7 0 0 1-1.073.59l-62.526-35.086a.698.698 0 0 1-.357-.61zm1.399-67.932v67.524l61.16 34.32v-67.524l-61.16-34.32zm4.748 64.743l51.664 28.991v-56.634L72.3 83.895v56.634zm52.022 30.793l-53.029-29.756a.699.699 0 0 1-.39-.628V82.702a.698.698 0 0 1 1.04-.609l53.028 29.757a.7.7 0 0 1 .391.628v58.235a.698.698 0 0 1-1.04.61z"/>
        <path fill="#4630EB" d="M129.412 109.697v69.126l62.559-35.105V74.592z"/>
        <path fill="#FFF" d="M130.112 110.106v67.524l61.16-34.32V75.786l-61.16 34.32zm-1.399 68.717v-69.126h.001c0-.244.129-.48.357-.609l62.526-35.086a.7.7 0 0 1 1.073.59v69.126a.698.698 0 0 1-.358.609l-62.525 35.087a.7.7 0 0 1-1.073-.59z"/>
        <path fill="#00F" d="M74.097 105.046V73.493h1.398v31.553z"/>
        <path fill="#ADB5BD" d="M102.336 11.505A89210.057 89210.057 0 0 1 9.18 63.778c-.016 10.633-.034 40.83-.051 51.461 16.785-9.369 49.763-27.806 93.14-52.118.022-10.684.043-40.932.066-51.616"/>
        <path fill="#FFF" d="M101.637 12.698c-15.173 8.528-30.35 17.05-45.53 25.566C40.7 46.91 25.29 55.551 9.878 64.19c-.008 5.371-.016 15.195-.025 25.058-.008 9.58-.016 19.195-.024 24.804a49375.71 49375.71 0 0 0 41.809-23.374 80559.62 80559.62 0 0 0 49.937-27.967c.01-5.467.021-15.506.032-25.526.01-9.473.02-18.928.03-24.486zM55.425 37.046c15.526-8.711 31.05-17.428 46.57-26.15l1.04-.585-.003 1.194c-.01 5.32-.022 15.49-.033 25.68-.01 10.275-.022 20.572-.033 25.936v.41l-.355.199A82847.83 82847.83 0 0 1 52.32 91.896a48587.939 48587.939 0 0 1-42.852 23.953l-1.037.578.002-1.188c.009-5.361.018-15.698.026-25.992.009-10.12.018-20.198.026-25.469v-.41l.355-.199c15.53-8.704 31.059-17.41 46.585-26.123z"/>
        <path fill="#0CDA8F" d="M28.781 153.684c-.028-33.543.242-71.72.208-106.776 0-7.455-6.638-13.485-14.092-13.485 20-11.21 36.005-20.189 55.992-31.422A13.256 13.256 0 0 1 76.643.716c6.15 0 11.338 4.113 12.966 9.738.353 1.221.532 2.488.532 3.76-.437 37.39-.394 67.898-.401 105.304-9.337 5.234-18.68 10.463-27.985 15.688a21720.982 21720.982 0 0 1-32.974 18.478"/>
        <path fill="#FFF" d="M28.085 153.684c-.014-16.464.044-34.044.102-51.824.061-18.444.123-37.103.106-54.952h-.003c0-3.489-1.538-6.65-3.947-8.954-2.472-2.366-5.86-3.832-9.446-3.832h-.216v-1.379A47888.253 47888.253 0 0 0 70.547 1.391l.042-.021A13.849 13.849 0 0 1 73.527.358a14.268 14.268 0 0 1 3.116-.341 14.13 14.13 0 0 1 8.515 2.84 14.213 14.213 0 0 1 5.54 9.36c.095.667.142 1.335.142 1.996l-.003.006c-.396 33.894-.398 62.132-.4 94.978v10.731l-.356.2-9.426 5.282c-6.195 3.47-12.385 6.939-18.559 10.405a21014.62 21014.62 0 0 1-32.976 18.478l-1.035.578v-1.187zm1.495-51.824c-.057 17.353-.113 34.516-.103 50.636a21099.213 21099.213 0 0 0 31.937-17.899c6.173-3.466 12.364-6.935 18.558-10.405l9.071-5.084.001-9.91c.002-32.851.005-61.092.4-94.985h-.002a12.89 12.89 0 0 0-.502-3.565 12.82 12.82 0 0 0-4.618-6.677 12.741 12.741 0 0 0-7.679-2.556 12.427 12.427 0 0 0-5.44 1.21 48845.165 48845.165 0 0 1-53.968 30.288 15.273 15.273 0 0 1 8.07 4.036c2.675 2.56 4.383 6.075 4.383 9.959h-.002c.017 17.849-.045 36.508-.106 54.952z"/>
        <path fill="#15181A" d="M110.753 18.345A89210.147 89210.147 0 0 1 17.6 70.618c-.017 10.633-.034 40.83-.051 51.462a41812.447 41812.447 0 0 0 52.068-29.11l11.348 7.346.01-13.705c8.618-4.828 18.386-10.301 29.713-16.65.022-10.684.044-40.933.066-51.616"/>
        <path fill="#FFF" d="M110.055 19.538c-15.173 8.528-30.35 17.05-45.53 25.566-15.407 8.646-30.818 17.287-46.23 25.925-.008 5.377-.017 15.217-.025 25.091-.008 9.568-.016 19.168-.024 24.772a43551.205 43551.205 0 0 0 51.029-28.53l.366-.205 10.627 6.878.009-12.835.355-.198a89466.358 89466.358 0 0 0 29.36-16.452c.01-5.458.021-15.471.032-25.474.01-9.49.02-18.97.03-24.538zM63.843 43.886c15.526-8.711 31.05-17.428 46.569-26.15l1.04-.585-.002 1.194c-.011 5.328-.022 15.524-.033 25.73-.011 10.26-.022 20.53-.033 25.885l-.001.411-.354.199a194126.699 194126.699 0 0 1-29.36 16.451l-.01 14.575-12.068-7.811a44210.738 44210.738 0 0 1-51.705 28.904l-1.037.579.002-1.188c.009-5.356.018-15.677.026-25.96.009-10.13.017-20.225.026-25.502v-.41l.355-.199c15.53-8.704 31.059-17.41 46.585-26.123z"/>
        <path fill="#FFF" d="M39.18 80.008l54.425-30.541v1.601L39.18 81.61v-1.601zm0 11.032l54.425-30.541V62.1L39.18 92.641V91.04z"/>
        <path fill="#000" d="M89.744 92.984l29.837 16.641-29.851 3.003z"/>
        <path fill="#FFF" d="M90.082 92.375l31.775 17.722-32.824 3.302.015-21.601 1.034.577zm27.222 16.779L90.44 94.17l-.012 17.687 26.877-2.703z"/>
        <path fill="#00F" d="M62.403 118.04l62.193-6.256.136 1.387-62.193 6.256zM62.403 176.278l62.193-6.258.136 1.387-62.193 6.258z"/>
        <path fill="#00F" d="M61.772 176.754v-58.02h1.398v58.02z"/>
        <path fill="#15181A" d="M58.965 115.722l3.506 3.011v58.239l-3.506-5.976z"/>
        <path fill="#FFF" d="M59.458 115.226l3.467 2.977c.16.138.243.334.243.53h.002v58.239a.7.7 0 0 1-1.331.299l-3.475-5.923a.692.692 0 0 1-.095-.352h-.003v-55.274a.7.7 0 0 1 1.192-.496zm2.314 3.826l-2.107-1.81v53.569l2.107 3.592v-55.351z"/>
        <path fill="#4630EB" d="M62.471 118.733l62.193-6.256v58.236l-62.193 6.259z"/>
        <path fill="#FFF" d="M62.455 118.034l62.14-6.25a.697.697 0 0 1 .766.724v58.205a.697.697 0 0 1-.629.693l-62.193 6.26a.697.697 0 0 1-.765-.695h-.002v-58.238a.7.7 0 0 1 .683-.699zm61.512-4.786l-60.797 6.116V176.2l60.797-6.118v-56.835z"/>
        <path fill="#15181A" d="M111.564 135.034l1.195 3.963-15.248 3.095-.928-3.987z"/>
        <path fill="#FFF" d="M112.233 134.834l1.416 4.693-16.665 3.383-1.242-5.344 16.306-3.343.185.611zm-.363 3.633l-.791-2.623-13.654 2.8.612 2.631 13.833-2.808z"/>
        <path fill="#15181A" d="M88.03 142.905l-11.727-.07.717-3.94 10.452.023z"/>
        <path fill="#FFF" d="M88.028 143.602l-12.558-.075.97-5.33 11.639.025.754 5.385-.805-.005zm-10.891-1.458l10.09.06-.362-2.591-9.264-.02-.464 2.55z"/>
        <path fill="#15181A" d="M92.68 126.833l.079-.005c6.06-.452 11.725 1.256 15.992 4.387 4.393 3.224 7.32 7.951 7.746 13.421l.004.05c.41 5.493-1.782 10.638-5.657 14.513-3.764 3.765-9.144 6.332-15.244 6.809l-.078.006c-6.06.451-11.726-1.256-15.993-4.388-4.393-3.223-7.32-7.951-7.746-13.421l-.004-.05c-.41-5.493 1.783-10.638 5.658-14.513 3.764-3.765 9.143-6.332 15.243-6.809zm.498 5.619l-.08.006c-4.696.366-8.813 2.318-11.67 5.176-2.747 2.747-4.306 6.333-4.025 10.102l.004.05c.292 3.745 2.353 7.023 5.452 9.297 3.226 2.368 7.56 3.655 12.244 3.306l.079-.005c4.696-.367 8.813-2.319 11.67-5.177 2.747-2.747 4.306-6.332 4.025-10.102l-.004-.05c-.291-3.744-2.353-7.023-5.452-9.297-3.226-2.368-7.56-3.655-12.243-3.306z"/>
        <path fill="#FFF" d="M92.628 126.137l.079-.006c3.05-.227 6.008.08 8.75.832 2.853.783 5.467 2.046 7.707 3.69 2.313 1.697 4.236 3.803 5.627 6.212a18.199 18.199 0 0 1 2.403 7.72l.004.05c.208 2.799-.234 5.512-1.214 8.026-1.016 2.607-2.606 4.993-4.646 7.033-1.975 1.974-4.383 3.63-7.103 4.845a26.006 26.006 0 0 1-8.583 2.165l-.079.006c-3.05.227-6.008-.08-8.75-.832-2.853-.783-5.467-2.046-7.707-3.689-2.313-1.698-4.236-3.804-5.627-6.213a18.2 18.2 0 0 1-2.403-7.72l-.004-.05c-.208-2.798.234-5.511 1.214-8.025 1.016-2.607 2.607-4.994 4.646-7.033 1.975-1.975 4.383-3.631 7.104-4.846a26.005 26.005 0 0 1 8.582-2.165zm.183 1.387l-.08.006a24.588 24.588 0 0 0-8.117 2.045c-2.556 1.141-4.822 2.7-6.683 4.561-1.909 1.91-3.393 4.131-4.335 6.547a16.884 16.884 0 0 0-1.12 7.42l.003.05c.2 2.578.98 4.983 2.218 7.129 1.29 2.235 3.082 4.195 5.244 5.782 2.108 1.546 4.567 2.735 7.247 3.47a24.44 24.44 0 0 0 8.282.783l.079-.006a24.59 24.59 0 0 0 8.118-2.044c2.555-1.142 4.821-2.7 6.682-4.562 1.91-1.91 3.394-4.13 4.335-6.547a16.886 16.886 0 0 0 1.12-7.42l-.003-.05a16.81 16.81 0 0 0-2.217-7.129c-1.29-2.235-3.083-4.195-5.245-5.782-2.108-1.546-4.567-2.735-7.248-3.47a24.434 24.434 0 0 0-8.28-.783zm.418 5.624l-.079.006a18.87 18.87 0 0 0-6.182 1.546c-1.938.86-3.649 2.031-5.046 3.428-1.336 1.337-2.375 2.873-3.034 4.528a11.269 11.269 0 0 0-.788 5.029l.003.05c.135 1.729.67 3.352 1.525 4.81.894 1.524 2.139 2.872 3.643 3.976 1.574 1.155 3.426 2.042 5.46 2.591a18.87 18.87 0 0 0 6.32.581l.079-.006a18.863 18.863 0 0 0 6.183-1.546c1.938-.86 3.648-2.03 5.045-3.428 1.336-1.336 2.375-2.873 3.034-4.528.632-1.584.918-3.285.789-5.028l-.004-.05a11.188 11.188 0 0 0-1.525-4.81c-.894-1.525-2.14-2.873-3.643-3.976-1.574-1.156-3.426-2.043-5.46-2.592a18.87 18.87 0 0 0-6.32-.58zm-.183-1.387l.08-.006c2.377-.177 4.67.054 6.783.625 2.202.594 4.212 1.558 5.925 2.815 1.653 1.214 3.027 2.704 4.02 4.397a12.588 12.588 0 0 1 1.716 5.411l.003.05a12.651 12.651 0 0 1-.886 5.646c-.734 1.842-1.878 3.54-3.34 5.003-1.515 1.515-3.37 2.785-5.472 3.717a20.266 20.266 0 0 1-6.641 1.661l-.08.006a20.26 20.26 0 0 1-6.783-.624c-2.202-.595-4.212-1.559-5.925-2.816-1.653-1.213-3.027-2.704-4.02-4.397a12.585 12.585 0 0 1-1.716-5.41l-.004-.05a12.655 12.655 0 0 1 .887-5.647c.734-1.842 1.878-3.54 3.34-5.003 1.515-1.515 3.37-2.785 5.472-3.717a20.26 20.26 0 0 1 6.641-1.66z"/>
        <path fill="#15181A" d="M95.755 148.515c.026 4.178.098 8.378.098 12.552 0 1.203-1.122 2.177-2.506 2.177-1.384 0-2.506-.974-2.506-2.177 0-4.417-.014-8.823-.066-13.252l4.98.7z"/>
        <path fill="#FFF" d="M96.451 148.512c.01 1.627.028 3.266.045 4.906.028 2.68.056 5.36.056 7.65 0 .811-.373 1.542-.977 2.066-.576.5-1.364.81-2.228.81-.864 0-1.653-.31-2.229-.81-.603-.524-.977-1.255-.977-2.067 0-2.576-.002-4.86-.01-6.619-.01-2.204-.027-4.412-.052-6.628l-.01-.809 6.379.897.003.604zm-1.348 4.917c-.015-1.435-.03-2.87-.04-4.307l-3.583-.504c.021 1.943.035 3.884.043 5.825.013 2.654.017 4.783.017 6.624 0 .39.187.749.49 1.013.332.287.797.465 1.317.465.52 0 .985-.178 1.316-.465.303-.264.49-.622.49-1.013 0-2.794-.024-5.217-.05-7.638zM91.749 132.72a4.514 4.514 0 0 1 4.416 3.583l.004.02 1.684 7.244-9.406 2.31-1.036-7.398a4.513 4.513 0 0 1 4.338-5.76"/>
        <path fill="#FFF" d="M91.749 132.02c1.24 0 2.382.437 3.28 1.165a5.21 5.21 0 0 1 1.818 2.973l.005.02 1.837 7.902-10.826 2.66-1.136-8.11a5.237 5.237 0 0 1-.19-1.398c0-1.439.583-2.742 1.526-3.685a5.195 5.195 0 0 1 3.686-1.526zm2.4 2.247a3.797 3.797 0 0 0-2.4-.848 3.801 3.801 0 0 0-2.697 1.117 3.8 3.8 0 0 0-1.117 2.696 3.78 3.78 0 0 0 .147 1.056l.012.039.937 6.689 7.987-1.962c-.51-2.19-1.07-4.411-1.536-6.607v-.002a3.813 3.813 0 0 0-1.333-2.178z"/>
        <path fill="#15181A" d="M93.227 140.111a4.824 4.824 0 1 1 0 9.647 4.824 4.824 0 0 1 0-9.647"/>
        <path fill="#FFF" d="M93.227 139.412c1.525 0 2.905.618 3.905 1.618 1 .999 1.618 2.38 1.618 3.905a5.505 5.505 0 0 1-1.618 3.905c-1 1-2.38 1.618-3.905 1.618a5.506 5.506 0 0 1-3.906-1.618c-1-1-1.617-2.38-1.617-3.905s.618-2.906 1.617-3.905c1-1 2.38-1.618 3.906-1.618zm2.916 2.606a4.112 4.112 0 0 0-2.916-1.208c-1.14 0-2.17.462-2.917 1.208a4.112 4.112 0 0 0-1.208 2.917c0 1.139.462 2.17 1.208 2.916a4.113 4.113 0 0 0 2.917 1.208c1.138 0 2.17-.461 2.916-1.208a4.112 4.112 0 0 0 1.208-2.916c0-1.14-.462-2.17-1.208-2.917z"/>
        <path fill="#0CDA8F" d="M129.21 20.99c.524-.209 1.46-.579 2.547-.98a91.982 91.982 0 0 1 4.04-1.393c3.704-1.175 8.008-2.226 10.677-1.832 3.168.467 4.367 2.548.92 7.714l-.034.044c-.978 1.236-9.369 12.239-13.176 20.067-1.009 2.075-1.686 3.904-1.796 5.226-.083.994.208 1.633 1.03 1.73.959.115 2.491-.27 4.74-1.295.562-.256 1.988-1.028 3.962-2.097 9.357-5.065 30.866-16.707 35.673-13.693v.002c.073.045.118.075.135.087.576.413 1.074 1.12 1.191 2.083.11.886-.109 1.993-.914 3.277a9.47 9.47 0 0 1-.316.475c-.986 1.376-3.265 5.227-3.838 8.516-.23 1.315-.182 2.515.353 3.365.518.823 1.547 1.361 3.309 1.415 3.371.103 9.13-1.534 18.518-6.144l.612 1.251c-9.615 4.721-15.595 6.395-19.169 6.286-2.295-.07-3.689-.857-4.45-2.065-.744-1.181-.833-2.716-.55-4.343.618-3.542 3.034-7.637 4.08-9.095.117-.164.207-.297.271-.399.61-.973.781-1.765.707-2.37-.065-.527-.322-.904-.618-1.116l-.06-.044h-.003c-4.116-2.581-25.129 8.793-34.27 13.741-1.98 1.072-3.41 1.847-4.044 2.136-2.5 1.14-4.282 1.558-5.484 1.415-1.768-.21-2.411-1.4-2.258-3.232.125-1.504.853-3.498 1.933-5.718 3.834-7.884 12.225-18.91 13.316-20.294 2.52-3.781 1.942-5.261.028-5.543-2.415-.357-6.504.657-10.055 1.783a91.3 91.3 0 0 0-3.98 1.37c-1.194.442-2.046.778-2.514.965l-.513-1.295z"/>
        <path fill="#15181A" d="M58.965 115.722l3.506 3.011 62.193-6.255-5.083-2.853z"/>
        <path fill="#FFF" d="M60.654 116.253l2.045 1.757 59.696-6.005-2.965-1.664-58.776 5.912zm1.364 3.01l-3.506-3.01a.696.696 0 0 1 .385-1.225l60.575-6.092c.15-.024.308 0 .45.08l5.083 2.853a.696.696 0 0 1-.273 1.302l-62.173 6.254a.695.695 0 0 1-.541-.162zM192.307 75.205l-62.553 35.101a.698.698 0 0 1-.691-.004L89.75 88.242V86.64l39.661 22.256 61.132-34.304-61.132-34.305-18.699 10.493.002-1.602 18.356-10.3a.698.698 0 0 1 .691.004l62.55 35.1a.698.698 0 0 1-.005 1.222"/>
    </g>
</svg>
