<svg xmlns="http://www.w3.org/2000/svg" width="191" height="180" viewBox="0 0 191 180">
    <g fill="none" fill-rule="evenodd">
        <path fill="#4630EB" d="M50.82 17.976c12.867-6.604 24.465-7.118 33.075-2.65h.001l.034.018c.22.114.436.232.651.353l14.49 7.844-.05.015c-8.541-3.84-19.721-2.943-31.96 3.661-13.51 7.288-25.66 20.106-34.336 34.85a107.758 107.758 0 0 0-7.383 15.103c-4.18 10.432-6.484 21.2-6.292 31.23.113 5.94 1.093 11.163 2.8 15.599l.321.225c2.533 6.38 6.577 11.107 11.708 13.965.325.181.655.354.989.52l.05.17-19.095-10.302C6.763 124.17.773 110.231.806 98.56c.042-15.017 5.616-31.55 14.638-46.156 9.07-14.684 21.599-27.356 35.375-34.427"/>
        <path fill="#ADB5BD" d="M100.349 24.047c.54.273 1.07.566 1.587.878 8.787 5.305 14.158 16.21 14.047 31.403-.11 15.06-5.594 31.503-14.316 45.89-8.675 14.31-20.6 26.686-33.766 33.798-12.233 6.606-23.453 7.543-32.022 3.717l.075.556-3.309-1.426-17.181-9.105c-4.518-2.213-8.284-6.672-10.965-12.039C1.623 111.965-.017 105.145 0 98.95c.021-7.484 1.392-15.333 3.863-23.133 2.56-8.081 6.299-16.11 10.937-23.628 4.673-7.573 10.255-14.62 16.453-20.657C37.22 25.717 43.76 20.836 50.61 17.317c6.431-3.305 12.559-5.116 18.174-5.566 5.55-.446 10.605.435 14.967 2.513l.012-.03.818.443a69.238 69.238 0 0 1 .653.355l16.098 8.726-.983.29zM68.909 13.22c-5.419.435-11.346 2.19-17.581 5.393-6.708 3.447-13.123 8.237-18.987 13.95-6.108 5.95-11.614 12.9-16.225 20.375-4.583 7.427-8.272 15.347-10.793 23.305-2.43 7.668-3.777 15.372-3.797 22.707-.017 5.984 1.569 12.574 4.349 18.137 2.549 5.102 6.093 9.321 10.307 11.373l.03.014 11.13 6.013a27.072 27.072 0 0 1-.87-.99c-3.962-4.732-6.294-10.28-7.36-16.22-.469-2.617-.74-5.43-.798-8.427-.095-5.016.422-10.207 1.475-15.442 1.086-5.395 2.743-10.847 4.89-16.214a106.619 106.619 0 0 1 3.407-7.732 110.961 110.961 0 0 1 4.055-7.548c4.47-7.606 9.855-14.706 15.87-20.818 5.793-5.887 12.173-10.86 18.887-14.486 6.117-3.303 11.982-5.208 17.407-5.83 3.043-.349 5.947-.294 8.68.144l-8.499-4.608-.009-.005-.316-.177a21.323 21.323 0 0 0-.234-.123l-.117-.061c-4.274-2.22-9.315-3.178-14.9-2.73z"/>
        <path fill="#FFF" d="M66.951 26.988c6.748-3.634 13.192-5.57 19.076-5.964 6.167-.413 11.718.869 16.362 3.665 4.606 2.773 8.295 7.027 10.787 12.582 2.38 5.308 3.668 11.81 3.613 19.351-.055 7.435-1.41 15.193-3.81 22.868-2.498 7.987-6.128 15.892-10.605 23.256-4.446 7.313-9.744 14.127-15.628 20.001-5.676 5.665-11.895 10.453-18.418 13.968-6.56 3.532-12.843 5.464-18.604 5.931-6.024.489-11.478-.624-16.084-3.186-4.632-2.577-8.404-6.618-11.023-11.973-2.494-5.103-3.94-11.402-4.08-18.765-.142-7.402 1.047-15.189 3.328-22.949 2.362-8.037 5.896-16.052 10.336-23.585 4.47-7.583 9.853-14.662 15.867-20.757 5.792-5.87 12.17-10.827 18.883-14.443zm19.178-4.5c-5.66.379-11.885 2.255-18.43 5.78-6.579 3.544-12.836 8.41-18.525 14.174-5.927 6.006-11.235 12.988-15.645 20.47-4.379 7.428-7.864 15.332-10.193 23.257-2.243 7.633-3.413 15.279-3.274 22.53.136 7.148 1.53 13.246 3.937 18.168 2.481 5.075 6.042 8.897 10.407 11.324 4.331 2.41 9.483 3.454 15.193 2.991 5.547-.45 11.62-2.322 17.981-5.748 6.394-3.444 12.494-8.141 18.066-13.703 5.792-5.783 11.016-12.503 15.406-19.726 4.419-7.27 8-15.064 10.462-22.934 2.363-7.556 3.696-15.174 3.75-22.455.053-7.327-1.191-13.633-3.493-18.765-2.368-5.278-5.854-9.308-10.196-11.922-4.365-2.629-9.605-3.832-15.446-3.441z"/>
        <path fill="#4630EB" d="M34.634 124.775c.254.212.514.414.781.605 17.458 12.47 47.719-15.632 56.144-29.439 7.164-11.74 11.67-25.155 11.76-37.444.11-15.146-5.365-24.323-15.04-25.91 3.068.39 5.884 1.316 8.38 2.74 7.554 4.306 12.17 13.158 12.075 25.49-.094 12.225-4.808 25.571-12.306 37.25-7.457 11.616-17.707 21.66-29.025 27.434-8.962 4.57-17.292 5.798-24.118 4.14-3.86-.94-5.948-2.116-8.65-4.866"/>
        <path fill="#FFF" d="M34.987 124.263a13 13 0 0 0 .362.294 15.802 15.802 0 0 0 1.849 1.222c7.496 4.22 17.198 1.368 26.364-4.247 9.304-5.7 18.026-14.23 23.416-21.192 1.318-1.703 2.435-3.311 3.31-4.758 3.595-5.946 6.508-12.321 8.51-18.757 1.923-6.179 3.007-12.407 3.05-18.357.055-7.42-1.231-13.367-3.69-17.643-2.428-4.221-6.015-6.809-10.595-7.567l.225-1.448.03.004.023.003c1.554.203 3.04.54 4.452 1.006a22.065 22.065 0 0 1 4.098 1.828c3.949 2.272 7.112 5.758 9.249 10.31 2.04 4.346 3.142 9.667 3.094 15.835-.046 6.078-1.203 12.416-3.255 18.685-2.132 6.514-5.233 12.965-9.059 18.98-3.799 5.972-8.324 11.535-13.347 16.327-4.844 4.62-10.155 8.527-15.73 11.397-4.439 2.285-8.73 3.75-12.77 4.45-4.212.73-8.149.628-11.692-.24-1.979-.486-3.514-1.04-4.917-1.836-1.401-.796-2.64-1.819-4.028-3.244l-10.578-10.863 11.63 9.811zm29.389-1.493c-6.595 4.04-13.492 6.693-19.785 6.488 2.988.546 6.251.538 9.716-.062 3.886-.673 8.027-2.089 12.323-4.3 5.44-2.8 10.633-6.623 15.38-11.151 4.933-4.707 9.38-10.174 13.115-16.046 3.76-5.91 6.808-12.253 8.905-18.66 2.01-6.143 3.145-12.335 3.19-18.249.045-5.948-1.01-11.064-2.964-15.227-1.713-3.649-4.117-6.562-7.074-8.653a18.9 18.9 0 0 1 2.3 3.204c2.585 4.495 3.937 10.684 3.88 18.36-.044 6.104-1.149 12.471-3.108 18.77-2.04 6.552-5.001 13.037-8.654 19.078-.902 1.49-2.05 3.145-3.405 4.895-5.478 7.077-14.35 15.752-23.819 21.553z"/>
        <path fill="#15181A" d="M67.41 36.92c21.672-11.738 35.053-2.647 34.88 21.064-.089 12.295-4.553 25.718-11.654 37.464-8.35 13.814-38.341 41.93-55.643 29.455-4.86-3.504-7.408-10.556-7.594-20.373-.246-12.932 2.852-24.615 10.316-37.35C45.22 54.38 55.727 43.25 67.411 36.92"/>
        <path fill="#FFF" d="M67.042 36.24c6.575-3.56 12.425-5.239 17.405-5.205 3.253.022 6.134.772 8.605 2.203 2.473 1.433 4.522 3.538 6.112 6.27 2.618 4.503 3.988 10.725 3.932 18.457-.044 6.107-1.15 12.477-3.111 18.778-2.04 6.556-5.004 13.043-8.659 19.087-.902 1.492-2.052 3.147-3.407 4.897-5.482 7.08-14.359 15.76-23.834 21.563-9.612 5.889-19.869 8.834-27.961 4.278a17.175 17.175 0 0 1-1.624-1.039c-2.54-1.83-4.472-4.566-5.793-8.109-1.312-3.516-2.019-7.836-2.114-12.858-.124-6.54.598-12.765 2.294-18.964 1.696-6.195 4.364-12.362 8.134-18.791 3.86-6.584 8.51-12.73 13.705-18.022 5.004-5.098 10.516-9.404 16.316-12.544zm17.399-3.743c-4.718-.032-10.314 1.589-16.656 5.022-5.667 3.07-11.059 7.283-15.96 12.275-5.109 5.204-9.684 11.253-13.485 17.735-3.703 6.316-6.323 12.369-7.985 18.442-1.661 6.07-2.368 12.165-2.246 18.568.092 4.86.769 9.022 2.024 12.389 1.217 3.263 2.978 5.769 5.276 7.426.483.347.977.663 1.482.947 7.5 4.223 17.209 1.369 26.38-4.25 9.31-5.702 18.037-14.236 23.43-21.2 1.319-1.705 2.436-3.313 3.312-4.76 3.597-5.95 6.512-12.328 8.516-18.767 1.923-6.181 3.008-12.412 3.052-18.364.054-7.47-1.25-13.448-3.743-17.735-1.46-2.51-3.326-4.434-5.564-5.731-2.24-1.297-4.862-1.977-7.833-1.997zM57.59 19.397c4.225 0 7.651 1.737 7.651 3.879 0 2.143-3.426 3.88-7.651 3.88-4.226 0-7.652-1.737-7.652-3.88 0-2.142 3.426-3.88 7.652-3.88"/>
        <path fill="#FFF" d="M57.59 18.62c2.25 0 4.304.477 5.806 1.247 1.638.84 2.65 2.043 2.65 3.408 0 1.367-1.012 2.57-2.65 3.41-1.502.77-3.556 1.246-5.806 1.246s-4.304-.477-5.806-1.247c-1.638-.84-2.652-2.042-2.652-3.409 0-1.365 1.014-2.568 2.652-3.408 1.502-.77 3.556-1.246 5.806-1.246zm5.067 2.488c-1.28-.656-3.071-1.062-5.067-1.062s-3.787.406-5.067 1.062c-1.145.587-1.853 1.356-1.853 2.167 0 .812.708 1.581 1.853 2.168 1.28.657 3.07 1.063 5.067 1.063 1.996 0 3.786-.406 5.067-1.063 1.144-.587 1.852-1.356 1.852-2.168 0-.81-.708-1.58-1.852-2.167z"/>
        <path fill="#FFF" d="M56.784 8.534c.32 0 .638.006.953.017h13.948v7.742c0 .196-.009.325-.032.513-.507 4.046-6.97 7.246-14.869 7.246-7.99 0-14.51-3.275-14.883-7.387h-.018V8.55h13.948c.315-.01.633-.017.953-.017"/>
        <path fill="#FFF" d="M56.783 7.759a46.611 46.611 0 0 1 .956.018v-.002h14.273l.477.8.002 8.818c-.477 2.062-2.402 3.877-5.045 5.194-2.786 1.388-6.542 2.24-10.663 2.24-4.12 0-7.876-.852-10.662-2.24-2.644-1.317-4.441-3.132-4.918-5.194l-.125-8.85 14.75-.768v.002a35.99 35.99 0 0 1 .955-.018zm.468 1.453a42.04 42.04 0 0 0-1.4.012l-.023.003H42.613v7.222l.014.158c.164 1.812 1.746 3.472 4.208 4.698 2.575 1.283 6.077 2.07 9.948 2.07 3.871 0 7.374-.787 9.948-2.07 2.462-1.226 4.045-2.886 4.208-4.698l.015-.16v-7.22H57.739l-.024-.003a30.34 30.34 0 0 0-.464-.012z"/>
        <path fill="#15181A" d="M56.784.776c8.23 0 14.901 3.473 14.901 7.759 0 4.284-6.671 7.758-14.9 7.758-8.23 0-14.902-3.474-14.902-7.758 0-4.286 6.672-7.76 14.901-7.76"/>
        <path fill="#FFF" d="M56.784 0c4.252 0 8.118.91 10.932 2.38 2.95 1.543 4.775 3.716 4.775 6.155 0 2.438-1.825 4.611-4.775 6.153-2.814 1.471-6.68 2.381-10.932 2.381-4.252 0-8.118-.91-10.931-2.38-2.95-1.543-4.775-3.716-4.775-6.154 0-2.44 1.824-4.612 4.774-6.154C48.666.91 52.532 0 56.784 0zm10.194 3.645c-2.593-1.355-6.196-2.193-10.194-2.193-3.998 0-7.6.838-10.193 2.193-2.457 1.284-3.976 3.016-3.976 4.89 0 1.873 1.52 3.605 3.976 4.889 2.593 1.355 6.195 2.193 10.193 2.193 3.998 0 7.6-.838 10.194-2.193 2.456-1.284 3.976-3.016 3.976-4.89 0-1.873-1.52-3.605-3.976-4.889zM66.047 47.48c1.61-.828 3.22-1.654 4.83-2.48l.003 16.14-4.833 2.48V47.48"/>
        <path fill="#FFF" d="M65.655 47.293l2.41-1.227 3.618-1.842.002 17.667-2.824 1.437-3.62 1.844.001-17.668.413-.211zm3.205.06l-1.996 1.017v14.284l3.199-1.63-.001-14.283-1.202.612zM41.078 80.117c.752-1.87 1.511-3.752 2.27-5.634l12.228 1.349c-.759 1.882-1.518 3.756-2.27 5.634-4.076-.442-8.152-.891-12.228-1.35"/>
        <path fill="#FFF" d="M40.633 79.846c.742-1.807 1.491-3.625 2.24-5.443l.287-.696 14.027 1.516-.987 2.395c-.633 1.535-1.267 3.075-1.684 4.095l-.216.528-.592-.062a3431.906 3431.906 0 0 1-12.44-1.344l-.995-.11.36-.879zm3.538-4.559l-1.73 4.205a2662.095 2662.095 0 0 0 10.846 1.171c.588-1.437 1.027-2.5 1.468-3.571l.26-.633-10.844-1.172zM43.342 112.5a301.597 301.597 0 0 1-2.264-3.214c4.078-4.866 8.156-9.75 12.233-14.63.75 1.073 1.508 2.142 2.265 3.212-4.077 4.882-8.155 9.756-12.234 14.632"/>
        <path fill="#FFF" d="M42.811 113.245c-.423-.6-.809-1.147-1.118-1.59-.336-.482-.703-1.012-1.113-1.61l-.307-.447.348-.42c3.673-4.43 7.59-9.17 11.508-13.91l1.148-1.389.567.82c.444.642.798 1.15 1.108 1.594.37.532.743 1.063 1.115 1.594l.315.448-.35.423a19495.32 19495.32 0 0 1-6.01 7.268l-6.012 7.265-.63.76-.569-.806zm.119-2.416l.544.778c4.118-4.974 3.097-3.739 5.38-6.498 1.888-2.28 3.775-4.562 5.662-6.845l-.802-1.146-.544-.78c-3.604 4.36-7.212 8.726-11.04 13.341.248.358.516.744.8 1.15zM70.88 113.124c-1.611.826-3.222 1.652-4.833 2.48V99.468c1.61-.827 3.22-1.653 4.83-2.486l.003 16.141"/>
        <path fill="#FFF" d="M71.272 113.31l-2.412 1.227-3.619 1.842V98.721l.692-.352c1.657-.843 3.312-1.686 4.54-2.317l1.21-.621.002 17.67-.413.21zm-3.206-.058l1.999-1.016-.002-14.284c-1.186.607-2.198 1.122-3.2 1.633l-.001 14.28 1.204-.613zM95.849 80.494c-.758 1.88-1.508 3.758-2.258 5.627l-12.24-1.34c.75-1.877 1.5-3.762 2.258-5.643 4.08.462 8.159.91 12.24 1.356"/>
        <path fill="#FFF" d="M96.292 80.767c-.491 1.194-.98 2.386-1.467 3.576l-1.046 2.554-14.04-1.504.981-2.403c.627-1.534 1.256-3.078 1.676-4.1l.218-.528.593.066c2.075.23 4.15.457 6.225.681 2.325.252 4.3.464 6.222.67l1 .106-.362.882zm-2.912 3.05l1.104-2.695c-1.874-.2-3.678-.394-5.228-.562-1.878-.203-3.755-.407-5.631-.615-.59 1.433-1.024 2.498-1.46 3.565l-.262.645 10.862 1.163.615-1.501zM93.584 47.328c.752 1.074 1.505 2.148 2.265 3.202-4.078 4.894-8.156 9.764-12.235 14.642-.76-1.07-1.511-2.144-2.264-3.219 4.079-4.879 8.157-9.748 12.234-14.625"/>
        <path fill="#FFF" d="M93.307 47.37c.232.335.47.678 1.11 1.595.337.484.7 1 1.111 1.576l.32.45-.352.428c-2.973 3.606-5.946 7.2-8.919 10.793l-3.733 4.512-.57-.812c-.22-.314-.621-.891-1.114-1.6l-1.109-1.6-.311-.45.346-.418c4.636-5.607 5.349-6.467 6.057-7.323l5.96-7.2.637-.77.567.819zm-.13 2.42l-.542-.782-5.324 6.437-5.71 6.897a788.26 788.26 0 0 0 1.343 1.931l2.465-2.979c2.856-3.451 5.711-6.903 8.567-10.366-.25-.354-.519-.737-.798-1.137z"/>
        <path fill="#4630EB" d="M109.287 21.818h.004l.164.076c1.914.89 3.372 2.267 4.182 3.774.903 1.68 1.073 3.669-.039 5.28l-.025.038-.007.01-.001-.002-.048.071-.044.06-3.244 4.565-.624-1.009a27.011 27.011 0 0 0-3.803-4.85 24.218 24.218 0 0 0-5.335-4.062c-.225-.126-.458-.25-.696-.374l-.7-.363.69-1.183c.756-1.476 2.238-2.423 4.029-2.762 1.674-.317 3.632-.097 5.497.73"/>
        <path fill="#15181A" d="M172.366 37.241c-35.09 19.098-45.372 24.697-80.486 43.754-.02 11.639-.039 44.694-.059 56.333 16.853-9.11 31.505-17.01 80.47-43.584.026-11.695.05-44.807.075-56.503"/>
        <path fill="#FFF" d="M171.647 38.204l-6.2 3.365a55368.346 55368.346 0 0 1-72.852 39.485c-.01 5.867-.018 16.614-.028 27.405-.01 10.49-.019 21.02-.028 27.142l5.397-2.907c14.361-7.738 30.593-16.483 73.64-39.78.012-5.968.024-16.945.036-27.902.012-10.38.024-20.74.035-26.808zm-6.946 2.082l8.47-4.596-.002 1.257c-.012 5.814-.025 16.929-.037 28.065-.013 11.227-.025 22.475-.038 28.335v.433l-.387.209c-41.992 22.724-58.993 31.884-74.032 39.987l-7.66 4.127.003-1.25c.01-5.858.02-17.149.03-28.394.009-11.06.019-22.077.028-27.838l.001-.432.387-.21c32.578-17.628 43.804-23.72 73.237-39.693z"/>
        <path fill="#FFF" d="M131.302 87.626l-40.286-6.282.238-1.45 39.845 6.212 40.069-49.64 1.198.903-40.345 49.983-.28.32z"/>
        <path fill="#0CDA8F" d="M160.313 65.605c1.518-.82 2.974-1.208 4.289-1.208 1.051 0 2.009.245 2.836.716.828.472 1.519 1.163 2.035 2.051.668 1.148 1.043 2.63 1.044 4.398 0 2.956-1.053 6.191-2.757 9.034-1.706 2.845-4.075 5.316-6.702 6.736-1.52.822-2.978 1.212-4.295 1.212-1.05 0-2.005-.246-2.83-.716-.827-.47-1.517-1.16-2.033-2.047-.669-1.149-1.045-2.634-1.045-4.405 0-2.957 1.055-6.195 2.76-9.038 1.706-2.846 4.074-5.316 6.698-6.733zm.035 62.515c.893-.483 1.757-.712 2.545-.712.644 0 1.233.151 1.743.442.51.29.935.714 1.251 1.258.399.685.623 1.565.624 2.61 0 1.7-.601 3.553-1.574 5.176-.976 1.63-2.336 3.047-3.845 3.863-.898.486-1.763.716-2.547.716v-.003a3.482 3.482 0 0 1-1.742-.442 3.377 3.377 0 0 1-1.25-1.257c-.4-.685-.624-1.565-.624-2.61 0-1.7.601-3.554 1.574-5.178.977-1.63 2.336-3.047 3.845-3.863zm-18.28.193c1.062-.575 2.088-.847 3.019-.847.757 0 1.447.178 2.044.519.598.34 1.095.838 1.467 1.476.474.813.74 1.86.74 3.103 0 2.048-.728 4.284-1.902 6.243-1.177 1.964-2.814 3.67-4.631 4.653-1.068.577-2.097.851-3.03.85a4.08 4.08 0 0 1-2.039-.516 3.953 3.953 0 0 1-1.463-1.472c-.473-.812-.74-1.86-.738-3.105 0-2.046.728-4.284 1.903-6.246 1.178-1.968 2.815-3.677 4.63-4.658zm-7.432-17.597c1.194-.646 2.342-.951 3.383-.951.839 0 1.603.197 2.264.575a4.402 4.402 0 0 1 1.626 1.637c.531.912.83 2.09.83 3.491-.002 2.306-.822 4.827-2.148 7.038-1.328 2.215-3.173 4.139-5.221 5.247-1.199.648-2.352.955-3.395.954-.84 0-1.603-.197-2.264-.574a4.396 4.396 0 0 1-1.624-1.635c-.53-.91-.827-2.083-.826-3.479.002-2.31.824-4.836 2.15-7.05 1.33-2.219 3.176-4.145 5.225-5.253zm7.505-25.637c1.35-.729 2.646-1.074 3.818-1.074.939 0 1.794.22 2.533.641a4.91 4.91 0 0 1 1.818 1.832c.594 1.023.928 2.344.928 3.919 0 2.612-.933 5.473-2.439 7.986-1.508 2.514-3.602 4.699-5.922 5.954-1.351.73-2.648 1.076-3.821 1.075-.94 0-1.795-.22-2.534-.642a4.925 4.925 0 0 1-1.819-1.832c-.597-1.024-.931-2.347-.93-3.922.001-2.616.934-5.476 2.44-7.986 1.51-2.515 3.606-4.697 5.928-5.95zm36.381 25.978c.733-.397 1.446-.584 2.1-.585.543 0 1.04.128 1.472.374.432.245.79.603 1.056 1.06.33.565.515 1.288.516 2.14 0 1.38-.488 2.884-1.276 4.2-.792 1.324-1.895 2.475-3.12 3.137v-.003c-.738.402-1.452.591-2.102.592a2.933 2.933 0 0 1-1.468-.373 2.846 2.846 0 0 1-1.05-1.055c-.334-.57-.523-1.296-.523-2.151 0-1.38.487-2.884 1.275-4.201.792-1.323 1.895-2.473 3.12-3.135zm7.464-23.623c.576-.311 1.14-.46 1.658-.46.437 0 .838.103 1.186.301v.001c.35.2.638.486.85.851.26.445.406 1.011.406 1.679.001 1.057-.369 2.204-.968 3.206-.602 1.007-1.445 1.884-2.384 2.392-.576.312-1.14.46-1.658.46-.439 0-.84-.103-1.189-.302a2.299 2.299 0 0 1-.852-.854c-.26-.448-.407-1.017-.408-1.687 0-1.056.37-2.2.97-3.2.603-1.003 1.447-1.877 2.39-2.387zm-7.41-15.84c.46-.25.915-.367 1.337-.367.366 0 .701.086.993.253.293.166.535.406.713.712.211.363.33.821.33 1.358 0 .83-.288 1.725-.756 2.505-.47.784-1.132 1.468-1.871 1.868h-.003c-.463.247-.918.365-1.338.365-.367 0-.703-.086-.995-.253a1.905 1.905 0 0 1-.713-.718c-.207-.36-.324-.814-.325-1.342 0-.828.29-1.726.758-2.508.471-.787 1.132-1.474 1.87-1.873zM40.273 172.053a278.945 278.945 0 0 0 4.988-2.755l.012-.008c1.572-.856 2.786-.928 3.643-.217.777.645 1.115 1.92 1.014 3.824-.09 2.181-.051 3.711.12 4.694.112.639.202.928.278.934.277.022.763-.465 1.325-1.37.595-.959 1.167-2.324 1.576-4.028l.011-.047.007-.02a76902.575 76902.575 0 0 0 5.258-15.357c.976-2.856 1.66-4.835 1.753-5.102.779-2.838 1.573-4.95 2.382-6.338.952-1.63 1.996-2.355 3.133-2.17l.051.008.033.01c.728.201 1.177.808 1.352 1.821.133.773.108 1.841-.073 3.205h.001c-.186 1.667-.24 2.984-.195 4.012.048 1.08.203 1.813.427 2.283l.012.028v.003c.138.278.285.417.433.455.17.044.393-.007.64-.118l.011-.005c4.734-2.53 8.14-4.479 8.15-4.485l.016-.008c3.747-2.028 5.616-3.042 5.621-3.045h.001c1.295-.769 2.319-.956 3.074-.561.782.409 1.142 1.346 1.08 2.81v.035c-.02.218-.068.632-.128 1.147-.16 1.373-.41 3.506-.486 5.424-.05 1.274-.033 2.467.13 3.288.081.405.128.668.13.667.374-.1.897-.62 1.458-1.34.758-.973 1.514-2.262 2.083-3.44.99-2.046 1.86-3.845 2.608-5.395.293-.606.405-.843 1.969-4.085 1.007-2.09 1.539-3.17 1.54-3.172l3.44-7.549.99-2.169c.63-1.387 1.21-2.657 1.737-3.81l1.42-3.107c.955-2.09 1.842-3.827 2.65-5.08.898-1.395 1.763-2.246 2.599-2.4.86-.159 1.663.162 2.074 1.574.29.995.378 2.698.082 5.496-.163 1.538-.396 3.394-.648 5.41a661.667 661.667 0 0 0-.601 4.893 232.749 232.749 0 0 0-.587 5.435c-.154 1.659-.254 3.118-.264 4.2-.013 1.482.12 2.498.39 3.05.074.154.135.237.179.249.057.015.172-.028.344-.13.602-.355 1.387-1.23 2.343-2.62l.021-.027a4233.82 4233.82 0 0 0 4.009-5.312l.096.068v2.3l-2.856 3.783c-1.081 1.575-2.027 2.597-2.82 3.065-.547.323-1.062.42-1.543.29-.493-.132-.878-.478-1.15-1.038-.366-.749-.548-1.98-.533-3.69.01-1.122.113-2.62.27-4.315.161-1.741.368-3.608.587-5.47.205-1.742.408-3.37.6-4.904.261-2.082.501-3.997.649-5.387.274-2.592.209-4.112-.035-4.949-.122-.42-.231-.54-.321-.524-.378.07-.919.687-1.592 1.732-.766 1.187-1.62 2.865-2.548 4.895a4899.408 4899.408 0 0 0-3.158 6.917l-.989 2.169c-1.03 2.259-2.18 4.782-3.448 7.568l-.01.02c-.001.004-.513 1.045-1.534 3.162-.52 1.079-.097.197-1.975 4.084-.749 1.55-1.618 3.35-2.608 5.396-.608 1.258-1.422 2.644-2.244 3.7-.748.961-1.541 1.68-2.275 1.876-1.143.303-1.755-.455-2.025-1.809-.187-.937-.209-2.242-.154-3.617.08-2.007.33-4.153.492-5.533.053-.455.096-.821.122-1.113h.002c.032-.831-.063-1.306-.284-1.421-.246-.129-.773.048-1.58.532l-.027.018c-.006.002-1.874 1.016-5.622 3.045-.246.14-3.6 2.052-8.193 4.507l-.039.017c-.083.039 0 .003-.052.026-.556.248-1.125.347-1.671.204-.567-.148-1.057-.532-1.41-1.242l-.026-.05c-.3-.633-.506-1.552-.564-2.843-.048-1.1.008-2.49.202-4.226l.003-.014c.163-1.224.19-2.155.08-2.793-.063-.367-.143-.578-.24-.634-.427-.023-.927.458-1.502 1.444-.743 1.272-1.489 3.275-2.237 6.007l-.015.046c-.002.004-.476 1.377-1.759 5.127a18553.114 18553.114 0 0 1-5.251 15.34c-.447 1.84-1.08 3.337-1.743 4.406-.878 1.414-1.902 2.154-2.756 2.086-.856-.07-1.406-.741-1.655-2.164-.188-1.078-.232-2.708-.138-5.001v-.009c.075-1.423-.086-2.3-.484-2.63-.318-.264-.954-.136-1.908.383v-.001c-.189.107-2.501 1.42-5.745 3.162v-1.683zm75.616-30.315c.084-.112-.005.005-.001 0z"/>
        <path fill="#FFF" d="M109.287 21.818h.004l.164.076c1.914.89 3.372 2.267 4.182 3.774.903 1.68 1.073 3.669-.039 5.28l-.025.038-.007.01-.001-.002-.048.071-.044.06-3.244 4.565-.624-1.009a27.011 27.011 0 0 0-3.803-4.85 24.218 24.218 0 0 0-5.335-4.062c-.225-.126-.458-.25-.696-.374l-.7-.363.69-1.183c.756-1.476 2.238-2.423 4.029-2.762 1.674-.317 3.632-.097 5.497.73zm2.963 4.538c-.657-1.223-1.858-2.351-3.448-3.096l-.025-.012c-1.6-.744-3.275-.951-4.688-.684-1.29.244-2.35.888-2.89 1.876l.05.028a25.506 25.506 0 0 1 5.677 4.322 28.135 28.135 0 0 1 3.379 4.131l1.88-2.643.012-.015.023-.033.046-.068a3.061 3.061 0 0 0 .21-.356c.524-1.045.399-2.287-.226-3.45z"/>
    </g>
</svg>
