<svg xmlns="http://www.w3.org/2000/svg" width="606" height="700" viewBox="0 0 606 700"><g fill="none" fill-rule="evenodd"><path fill="#F1F3F5" d="M75.123 160.466c24.195-6.598 52.036-14.198 66.157-31.334 24.902-30.22 26.143-95.823 66.833-94.71 75.592 2.068 24.556 136.104 146.945 130.3 95.005-4.507 125.916-29.367 152.776-22.65 79.374 19.85-45.988 142.75 12.17 173.507 76.676 40.554 120.141 42.722 50.094 126.216-56.858 67.773 1.987 138.385-30.313 171.521-42.668 43.773-93.39 9.937-131.412 14.437-28.423 3.365-73.063 13.341-100.97 33.388-41.676 29.939-75.638 23.173-89.287-18.644-19.481-59.679-8.865-122.032-99.352-107.992-63.91 6.304-92.303-19.743-106.72-45.217-36.282-64.11 19.424-124.644 35.773-172.07C69.191 255.214 20.35 215.47 30.501 187.667c3.876-10.615 16.352-19.492 44.622-27.201"/><path fill="#4630EB" d="M385.999 113.978c-45.394 25.515-90.759 51.006-136.182 76.542-45.364 25.504-90.858 51.096-136.463 76.704l-.225 124.866-.226 125.114c45.559-25.653 91.108-51.32 136.605-76.95a471213.82 471213.82 0 0 1 136.5-76.863c.015-41.569.014-83.173.013-124.706-.001-41.533-.003-83.067-.022-124.707"/><path fill="#FEFEFE" d="M438.668 159.14c-45.438 25.502-90.827 51.025-136.206 76.533-45.425 25.532-90.875 51.036-136.383 76.628-.064 41.612-.18 83.33-.261 124.979-.082 41.683-.163 83.367-.227 125.086 45.567-25.666 91.123-51.38 136.665-77.038 45.52-25.647 90.992-51.285 136.453-76.879.005-41.634-.025-83.162-.02-124.725.004-41.528-.026-83.092-.021-124.584"/><path fill="#000" d="M438.141 159.723c-37.18 20.797-74.328 41.607-111.465 62.41l-23.82 13.344c-19.953 11.177-39.91 22.348-59.876 33.524a170945.94 170945.94 0 0 0-76.371 42.764c-.039 24.745-.095 49.526-.152 74.308-.039 16.677-.077 33.354-.11 50.018l-.002 1.111c-.08 40.796-.16 81.592-.223 122.422 23.925-13.43 47.846-26.872 71.764-40.312 21.329-11.986 42.655-23.97 63.979-35.943 15.137-8.498 30.269-16.996 45.396-25.492 30.32-17.028 60.623-34.046 90.922-51.045.002-20.636-.004-41.246-.01-61.847-.007-20.745-.014-41.481-.011-62.226.002-20.701-.004-41.411-.01-62.117-.007-20.315-.013-40.625-.01-60.919zm-112.25 61.012a198255.3 198255.3 0 0 1 112.658-63.078l1.194-.668v1.368c-.002 20.748.004 41.514.01 62.285.007 20.706.013 41.416.01 62.117-.001 20.745.005 41.48.011 62.226.007 20.758.013 41.525.01 62.318v.47l-.408.229c-30.434 17.075-60.874 34.17-91.33 51.274-15.127 8.496-30.259 16.994-45.396 25.492-21.323 11.973-42.65 23.957-63.979 35.942a168146.929 168146.929 0 0 1-72.959 40.984l-1.196.672.002-1.371c.064-41.288.145-82.54.225-123.793l.002-1.11c.033-16.665.071-33.342.11-50.019.057-24.94.114-49.878.152-74.779l.001-.47.408-.23c25.61-14.35 51.2-28.675 76.778-42.992 19.966-11.176 39.923-22.347 59.877-33.524l23.82-13.343z"/><path fill="#E9ECEF" d="M216.885 378.495c16.98-26.612 28.243-67.247 28.276-96.851.033-29.604-6.083-44.653-16.101-56.103-10.018-11.45-24.013-14.88-39.724-8.103a13537.3 13537.3 0 0 1-.089 37.933c18.104-6.283 31.975 15.026 31.926 39.772-.048 24.747-6.45 41.245-16.208 57.23 3.996 8.715 7.993 17.428 11.92 26.122"/><path fill="#000" d="M217.003 377.29c8.03-12.782 14.744-28.638 19.542-44.884 5.126-17.359 8.062-35.148 8.079-50.094.017-14.684-1.507-25.748-4.288-34.554-2.766-8.758-6.782-15.28-11.768-20.913-5.013-5.666-11.028-9.315-17.752-10.671-6.398-1.29-13.46-.507-20.938 2.59-.008 6.143-.017 12.279-.03 18.41-.013 5.946-.03 11.886-.054 17.822 1.92-.555 3.794-.818 5.611-.814 5.276.01 10.04 2.251 14.035 6.077 3.939 3.774 7.127 9.097 9.308 15.336 2.116 6.055 3.286 12.98 3.272 20.19-.024 12.436-1.665 22.803-4.54 32.072-2.832 9.132-6.859 17.187-11.717 25.1l.065.139a5286.804 5286.804 0 0 1 11.175 24.194zm21.09-44.44c-4.995 16.92-12.06 33.43-20.529 46.551l-.802 1.244-.614-1.344a4793.184 4793.184 0 0 0-11.787-25.541l-.423-.912.224-.363c4.893-7.925 8.945-15.974 11.775-25.098 2.83-9.127 4.446-19.341 4.47-31.603.014-7.032-1.124-13.778-3.183-19.67-2.098-6-5.148-11.104-8.904-14.702-3.701-3.546-8.088-5.623-12.915-5.632-1.98-.004-4.038.337-6.16 1.066l-1.073.368.005-1.127c.026-6.306.044-12.608.058-18.913.013-6.308.022-12.621.031-18.943v-.529l.487-.207c7.968-3.398 15.524-4.272 22.386-2.888 7.078 1.428 13.394 5.253 18.644 11.185 5.127 5.794 9.255 12.496 12.096 21.49 2.826 8.948 4.374 20.167 4.357 35.03-.016 15.098-2.976 33.044-8.142 50.539zm-67.329 318.041l-1.547-28.728-1.547-28.793v-.103c.003-1.948-.345-3.5-.943-4.566-.262-.467-.56-.813-.88-1.027a1.547 1.547 0 0 0-.865-.272c-.407 0-.884.144-1.424.448-1.59.897-3.082 2.82-4.205 5.21-1.17 2.49-1.898 5.42-1.902 8.206v.102l-1.633 30.604-1.633 30.518c-.023 3.367-.9 6.878-2.296 9.846-1.471 3.128-3.557 5.723-5.891 7.038-1.143.645-2.28.95-3.37.948a5.458 5.458 0 0 1-3.075-.94c-.852-.571-1.579-1.38-2.148-2.395-.905-1.614-1.436-3.81-1.447-6.432l-.757-13.599c-.814-14.619-1.628-29.236-2.442-43.92v-.119c.016-1.952-.328-3.506-.925-4.57-.26-.465-.556-.81-.876-1.024a1.54 1.54 0 0 0-.854-.269c-.416-.003-.905.143-1.455.453-1.6.903-3.09 2.826-4.209 5.214-1.17 2.501-1.895 5.447-1.9 8.263v.102c-.744 13.926-1.489 27.817-2.234 41.709l-1.04 19.42h-.002c-.04 3.362-.918 6.884-2.315 9.86-1.454 3.098-3.51 5.672-5.836 6.982-1.14.641-2.273.945-3.361.943a5.453 5.453 0 0 1-3.077-.942c-.854-.574-1.581-1.384-2.15-2.4-.92-1.641-1.454-3.882-1.45-6.556h4.003c-.004 1.953.345 3.516.946 4.59.78 1.39 1.742 1.636 3.127.856 1.579-.89 3.056-2.808 4.173-5.189 1.18-2.513 1.917-5.47 1.939-8.262v-.087l1.041-19.42c.745-13.891 1.49-27.783 2.234-41.709.024-3.382.888-6.892 2.277-9.859 1.461-3.121 3.534-5.704 5.872-7.023 1.166-.658 2.324-.965 3.433-.956a5.506 5.506 0 0 1 3.067.945c.852.571 1.578 1.378 2.147 2.391.907 1.616 1.434 3.814 1.429 6.445.813 14.681 1.626 29.296 2.44 43.912l.757 13.599v.11c-.013 8.803 5.327 6.502 8.304.177 1.179-2.507 1.915-5.45 1.92-8.234v-.102l1.632-30.52 1.633-30.603c.023-3.367.89-6.864 2.278-9.818 1.461-3.11 3.536-5.687 5.869-7.003 1.147-.647 2.289-.953 3.386-.952a5.468 5.468 0 0 1 3.079.933c.859.574 1.591 1.388 2.166 2.411.904 1.612 1.436 3.805 1.445 6.431l1.548 28.793 1.354 25.166.193 3.57v.11c-.065 8.663 5.23 6.79 8.314.201 1.175-2.51 1.906-5.454 1.91-8.234v-.102c.51-9.58 1.03-19.166 1.55-28.76.584-10.772 1.169-21.554 1.743-32.346.022-3.365.882-6.864 2.264-9.821 1.453-3.108 3.514-5.68 5.843-6.993 1.163-.656 2.32-.963 3.427-.955a5.48 5.48 0 0 1 3.052.939c.847.567 1.57 1.37 2.136 2.38.904 1.612 1.43 3.813 1.426 6.459.762 13.628 1.523 27.217 2.285 40.809l.933 16.637v.11c-.003 1.94.345 3.492.945 4.56.79 1.408 1.776 1.64 3.172.852 1.595-.9 3.083-2.824 4.2-5.204 1.175-2.505 1.903-5.449 1.906-8.232v-.11c.572-10.402 1.12-20.537 1.656-30.53.546-10.182 1.086-20.374 1.627-30.595.021-3.361.89-6.862 2.278-9.822 1.464-3.119 3.536-5.702 5.866-7.013 1.142-.644 2.28-.95 3.37-.948a5.447 5.447 0 0 1 3.075.938c.852.57 1.579 1.38 2.148 2.396.906 1.617 1.438 3.82 1.448 6.458a260249.747 260249.747 0 0 0 3.116 57.501v.102c-.002 1.958.348 3.522.95 4.596.265.469.564.818.886 1.034.259.173.548.264.858.265.405 0 .883-.145 1.425-.451l1.962 3.508c-1.149.649-2.291.955-3.387.954a5.476 5.476 0 0 1-3.086-.941c-.855-.572-1.584-1.383-2.157-2.403-.909-1.618-1.443-3.824-1.453-6.46a257587.31 257587.31 0 0 1-3.115-57.501v-.102c.002-1.96-.347-3.523-.946-4.593-.263-.467-.559-.814-.878-1.027a1.501 1.501 0 0 0-.846-.262c-.4 0-.873.142-1.41.444-1.591.897-3.081 2.819-4.2 5.204-1.171 2.496-1.899 5.432-1.902 8.225v.102a38808.96 38808.96 0 0 1-1.627 30.595c-.556 10.371-1.108 20.582-1.656 30.546-.023 3.348-.89 6.853-2.282 9.82-1.46 3.113-3.53 5.698-5.864 7.015-1.15.648-2.291.954-3.387.953a5.488 5.488 0 0 1-3.09-.943c-.855-.573-1.584-1.385-2.157-2.405-.904-1.612-1.436-3.803-1.447-6.416l-.933-16.637c-.762-13.595-1.524-27.186-2.286-40.817v-.118c.015-1.967-.328-3.525-.923-4.587-.257-.46-.55-.8-.865-1.01a1.508 1.508 0 0 0-.839-.263c-.414-.003-.9.142-1.45.451-1.588.895-3.067 2.808-4.178 5.184-1.164 2.49-1.885 5.426-1.888 8.224v.102a32259.85 32259.85 0 0 1-1.742 32.346c-.52 9.594-1.04 19.182-1.552 28.76-.022 3.347-.893 6.857-2.285 9.832-1.46 3.118-3.529 5.714-5.855 7.037-1.16.662-2.313.97-3.414.962a5.51 5.51 0 0 1-3.069-.949c-.848-.568-1.574-1.373-2.147-2.385-.924-1.631-1.463-3.847-1.458-6.479M465.59 378.495c-30.759 17.315-61.55 34.667-92.346 51.977-30.862 17.348-61.693 34.715-92.521 52.05l-.078 83.07c30.842-17.358 61.72-34.713 92.597-52.081 30.806-17.328 61.613-34.656 92.35-51.97l-.003-83.046"/><path fill="#000" d="M465.065 380.163l-26.156 14.72a96134.555 96134.555 0 0 1-65.271 36.72c-16.971 9.536-33.932 19.077-50.888 28.615-13.836 7.783-27.668 15.565-41.5 23.34l-.076 81.439a190317.69 190317.69 0 0 1 58.094-32.664l33.582-18.878.985-.554c30.433-17.112 60.866-34.223 91.23-51.32v-81.418zm-26.94 13.32c9.117-5.132 18.233-10.264 27.347-15.392l1.195-.672v85.103l-.408.23c-30.5 17.174-61.07 34.361-91.64 51.55l-.984.553c-11.195 6.295-22.39 12.587-33.582 18.879a182713.323 182713.323 0 0 0-59.289 33.336l-1.194.672c.027-28.376.056-56.752.08-85.127l.408-.23c13.967-7.85 27.935-15.708 41.906-23.567 16.957-9.54 33.918-19.08 50.889-28.616a98458.298 98458.298 0 0 0 65.271-36.719z"/><path fill="#0BDA8F" d="M429.266 432.258l-55.954 31.386-56.094 31.514-.014 17.503 7.294 3.468 48.841-34.99 63.22-45.413z"/><path fill="#000" d="M428.82 432.99l-55.493 31.302-55.59 31.404-.012 16.591 6.402 3.061 48.37-34.844 62.012-44.794-5.688-2.72zm-56.275 29.902l56.217-31.71 8.872 4.243-64.205 46.38-49.142 35.4-8.158-3.901.014-18.55 56.402-31.862z"/><path fill="#FEFEFE" d="M436.56 435.484c-18.625 10.496-37.257 20.973-55.838 31.48-18.633 10.537-37.318 21.077-55.978 31.609l-.013 17.556c18.661-10.57 37.365-21.084 56.018-31.616 18.563-10.481 37.217-20.99 55.808-31.522l.002-17.507"/><path fill="#000" d="M436.032 437.163l-14.618 8.242a27000.547 27000.547 0 0 0-40.299 22.749 57592.599 57592.599 0 0 1-44.722 25.279l-11.12 6.282-.013 15.809c12.556-7.117 23.526-13.307 34.49-19.494 6.873-3.878 13.744-7.754 20.607-11.633 5.364-3.031 10.735-6.065 16.11-9.1 13.839-7.816 27.702-15.645 39.562-22.37l.003-15.764zm-15.404 6.835c5.27-2.971 10.542-5.943 15.812-8.916l1.194-.673-.003 19.455-.408.232c-14.67 8.319-27.331 15.47-39.97 22.608-5.375 3.035-10.746 6.07-16.11 9.1a32287.71 32287.71 0 0 1-20.606 11.633c-12.482 7.043-24.972 14.09-35.686 20.165l-1.195.678.015-19.51 11.937-6.744a58628.591 58628.591 0 0 0 44.722-25.28c13.413-7.592 26.854-15.169 40.298-22.748zM407.432 42.293c-1.724.966-3.132 3.734-3.13 6.154 0 2.42 1.41 3.605 3.135 2.638 1.725-.968 3.117-3.72 3.115-6.142-.003-2.424-1.396-3.617-3.12-2.65zm75.432 45.946c-1.73.974-3.128 3.753-3.108 6.196.019 2.444 1.448 3.62 3.18 2.646 1.734-.974 3.106-3.723 3.085-6.17-.02-2.447-1.425-3.645-3.157-2.672zm-.144-17.704c-1.728.972-3.123 3.74-3.104 6.183.02 2.444 1.447 3.642 3.176 2.67 1.73-.974 3.1-3.736 3.079-6.178-.021-2.442-1.423-3.647-3.151-2.675zm-.145-17.646c-1.725.97-3.117 3.733-3.098 6.171.02 2.438 1.444 3.623 3.17 2.652 1.727-.971 3.095-3.731 3.074-6.164-.021-2.433-1.421-3.629-3.146-2.659zm-.144-17.578c-1.722.969-3.111 3.71-3.092 6.139.019 2.428 1.44 3.605 3.164 2.636 1.724-.97 3.089-3.714 3.068-6.142-.02-2.428-1.418-3.602-3.14-2.633zm-.143-17.52c-1.72.967-3.106 3.701-3.087 6.116.019 2.414 1.438 3.597 3.158 2.63 1.72-.968 3.084-3.717 3.063-6.13-.02-2.413-1.415-3.583-3.134-2.616zM482.145.338c-1.716.965-3.1 3.709-3.082 6.113.02 2.405 1.436 3.57 3.153 2.604 1.718-.966 3.078-3.703 3.058-6.107-.02-2.403-1.413-3.575-3.129-2.61zm-11.848 94.948c-1.735.975-3.13 3.747-3.114 6.197.016 2.45 1.44 3.637 3.176 2.661 1.737-.975 3.132-3.747 3.114-6.19-.017-2.445-1.44-3.643-3.176-2.668zm-.122-17.707c-1.732.973-3.117 3.739-3.1 6.184.015 2.445 1.428 3.639 3.161 2.665 1.734-.974 3.127-3.744 3.11-6.188-.019-2.445-1.439-3.634-3.171-2.66zm-.123-17.658c-1.729.971-3.111 3.73-3.095 6.17.016 2.441 1.426 3.621 3.157 2.65 1.73-.973 3.12-3.727 3.103-6.166-.017-2.44-1.435-3.625-3.165-2.654zm-.121-17.59c-1.726.969-3.106 3.712-3.09 6.138.016 2.426 1.423 3.612 3.15 2.642 1.728-.97 3.116-3.728 3.099-6.153-.018-2.425-1.433-3.598-3.16-2.628zm-.121-17.524c-1.723.973-3.1 3.7-3.085 6.117.016 2.415 1.42 3.604 3.145 2.635 1.725-.969 3.11-3.735 3.093-6.15-.018-2.415-1.43-3.574-3.153-2.602zm-.12-17.474c-1.721.966-3.096 3.707-3.08 6.113.016 2.406 1.418 3.586 3.14 2.619 1.72-.967 3.104-3.712 3.086-6.117-.017-2.406-1.427-3.582-3.147-2.615zm-11.951 95.004c-1.731.973-3.134 3.753-3.12 6.204.013 2.452 1.437 3.634 3.17 2.661 1.733-.973 3.135-3.742 3.12-6.193-.014-2.45-1.439-3.644-3.17-2.672zm-.1-17.729c-1.729.97-3.128 3.745-3.115 6.192.013 2.446 1.435 3.635 3.164 2.664 1.73-.972 3.13-3.745 3.115-6.19-.015-2.446-1.437-3.636-3.165-2.666zm-.1-17.66c-1.726.968-3.123 3.74-3.11 6.177.014 2.438 1.433 3.617 3.16 2.648 1.726-.97 3.123-3.726 3.108-6.167-.014-2.44-1.434-3.628-3.159-2.659zm-.1-17.604c-1.722.967-3.117 3.719-3.104 6.147.013 2.426 1.43 3.618 3.153 2.65 1.724-.968 3.119-3.738 3.104-6.164-.015-2.427-1.431-3.6-3.153-2.633zm-.1-17.535c-1.718.965-3.11 3.706-3.097 6.124.012 2.417 1.427 3.6 3.147 2.634 1.72-.967 3.113-3.725 3.098-6.142-.014-2.417-1.429-3.582-3.147-2.616zm-.098-17.487c-1.716.964-3.106 3.713-3.093 6.12.013 2.409 1.425 3.598 3.142 2.628 1.718-.97 3.107-3.722 3.093-6.129-.014-2.407-1.426-3.583-3.142-2.619zm-12.086 95.066c-1.735.974-3.11 3.75-3.1 6.209.01 2.458 1.402 3.647 3.14 2.672 1.736-.976 3.153-3.747 3.142-6.2-.012-2.452-1.446-3.655-3.182-2.681zm-.078-17.741c-1.732.973-3.105 3.737-3.095 6.186.01 2.448 1.4 3.658 3.134 2.685 1.734-.974 3.148-3.754 3.137-6.197-.012-2.442-1.443-3.647-3.176-2.674zM445 73.983c-1.73.97-3.1 3.725-3.09 6.163.01 2.44 1.398 3.64 3.128 2.668 1.731-.971 3.143-3.745 3.132-6.182-.012-2.438-1.441-3.62-3.17-2.65zm-.078-17.606c-1.726.969-3.095 3.703-3.085 6.131.01 2.43 1.397 3.632 3.124 2.662 1.727-.97 3.137-3.742 3.125-6.17-.011-2.429-1.438-3.592-3.164-2.623zm-.077-17.548c-1.723.968-3.089 3.7-3.079 6.12.01 2.418 1.393 3.612 3.118 2.644 1.724-.968 3.13-3.73 3.12-6.148-.012-2.418-1.436-3.583-3.159-2.616zm-.077-17.509c-1.72.966-3.084 3.711-3.074 6.126.01 2.414 1.391 3.595 3.113 2.629 1.72-.967 3.126-3.717 3.114-6.126-.011-2.409-1.433-3.594-3.153-2.629zm-12.155 95.117c-1.731.966-3.138 3.75-3.131 6.21.007 2.46 1.426 3.65 3.159 2.676 1.732-.972 3.14-3.75 3.131-6.208-.008-2.46-1.428-3.645-3.159-2.678zm-.056-17.755c-1.728.97-3.132 3.748-3.126 6.198.008 2.45 1.424 3.641 3.154 2.67 1.73-.97 3.134-3.747 3.126-6.196-.009-2.449-1.426-3.642-3.154-2.672zm-.055-17.676c-1.725.969-3.127 3.735-3.12 6.175.006 2.44 1.42 3.623 3.147 2.654 1.727-.97 3.129-3.734 3.12-6.174-.008-2.44-1.422-3.623-3.147-2.655zm-.056-17.618c-1.722.967-3.121 3.727-3.115 6.152.007 2.426 1.42 3.615 3.143 2.647 1.723-.967 3.123-3.73 3.115-6.16-.009-2.43-1.42-3.606-3.143-2.639zm-.055-17.56c-1.719.965-3.116 3.719-3.11 6.14.008 2.42 1.417 3.596 3.137 2.63 1.721-.965 3.118-3.727 3.11-6.148-.009-2.42-1.418-3.587-3.137-2.622zm-.055-17.521c-1.715.963-3.11 3.72-3.104 6.136.007 2.416 1.414 3.598 3.132 2.634 1.717-.964 3.112-3.72 3.103-6.135-.008-2.415-1.415-3.598-3.13-2.635zm-12.282 95.173c-1.735.974-3.14 3.76-3.137 6.221.004 2.462 1.417 3.657 3.154 2.682 1.737-.975 3.126-3.746 3.12-6.207-.005-2.46-1.402-3.67-3.137-2.696zm-.033-17.767c-1.732.972-3.136 3.747-3.131 6.2.003 2.451 1.414 3.652 3.148 2.684 1.733-.968 3.124-3.743 3.122-6.194-.001-2.451-1.407-3.662-3.139-2.69zm-.034-17.679c-1.729.97-3.13 3.735-3.125 6.177.003 2.442 1.411 3.63 3.142 2.658 1.73-.971 3.123-3.73 3.118-6.172-.006-2.44-1.406-3.633-3.135-2.663zm-.033-17.63c-1.726.968-3.124 3.726-3.12 6.153.003 2.428 1.41 3.622 3.137 2.652 1.727-.97 3.117-3.732 3.112-6.159-.006-2.426-1.403-3.615-3.129-2.646zm-.033-17.563c-1.723.967-3.118 3.718-3.115 6.14.004 2.424 1.407 3.604 3.132 2.636 1.724-.968 3.112-3.728 3.106-6.145-.005-2.417-1.4-3.598-3.123-2.631zm-.033-17.544c-1.72.966-3.113 3.716-3.11 6.139.004 2.422 1.405 3.605 3.126 2.638 1.722-.966 3.107-3.716 3.101-6.133-.005-2.417-1.397-3.61-3.117-2.644zm-12.401 95.23c-1.74.975-3.16 3.765-3.158 6.228 0 2.463 1.423 3.667 3.164 2.691 1.74-.976 3.145-3.754 3.142-6.217-.002-2.462-1.408-3.677-3.148-2.702zm-.01-17.77c-1.737.97-3.155 3.753-3.154 6.206 0 2.454 1.42 3.649 3.159 2.675 1.737-.975 3.139-3.751 3.136-6.204-.002-2.453-1.406-3.645-3.142-2.676zm-.012-17.69c-1.733.97-3.148 3.743-3.148 6.182.001 2.439 1.419 3.63 3.153 2.658 1.735-.972 3.134-3.743 3.132-6.181-.002-2.438-1.404-3.632-3.137-2.66zm-.011-17.634c-1.73.97-3.143 3.717-3.142 6.15 0 2.435 1.416 3.623 3.147 2.652 1.732-.97 3.128-3.74 3.126-6.169-.002-2.427-1.401-3.603-3.131-2.633zm-.011-17.575c-1.727.968-3.137 3.718-3.137 6.138.001 2.42 1.414 3.604 3.142 2.635 1.729-.97 3.123-3.723 3.12-6.146-.002-2.424-1.398-3.595-3.125-2.627z"/><path fill="#0BDA8F" d="M119.553 382.796c9.948-8.194 19.94-16.43 29.887-24.668-6.27-34.716 16.986-104.786 51.524-120.072.066-15.896.089-31.792.111-47.733-69.32 32.587-91.745 122.045-81.522 192.473"/><path fill="#000" d="M119.893 381.897c4.64-3.806 9.286-7.62 13.934-11.439a9720.99 9720.99 0 0 0 14.68-12.082c-3.232-18.744 1.9-47.354 12.656-72.316 9.39-21.79 23.08-40.841 39.27-48.228.033-7.796.054-15.588.071-23.384.016-7.549.027-15.102.038-22.666-31.298 15.047-52.92 41.739-66.198 72.96-15.587 36.649-19.682 79.527-14.451 117.155zm14.954-10.2c-5.017 4.123-10.034 8.24-15.04 12.346l-1.101.903-.206-1.41c-5.571-38.227-1.537-82.035 14.365-119.424 13.584-31.939 35.828-59.2 68.14-74.329l1.146-.536-.003 1.263c-.01 7.989-.022 15.966-.039 23.938-.017 7.976-.04 15.943-.073 23.908l-.002.523-.476.21c-15.99 7.046-29.579 25.938-38.916 47.606-10.732 24.908-15.82 53.423-12.475 71.862l.084.462-.364.3a10744.56 10744.56 0 0 1-15.04 12.379z"/><path fill="#FEFEFE" d="M112.903 383.98c7.623 50.284 49.27 67.625 75.462 52.888 26.19-14.737 29.725-23.75 41.743-42.627-4.98-11.016-10.047-22.056-15.114-33.098-7.55 12.399-10.702 18.906-26.56 27.836-15.859 8.931-40.2-.848-45.368-29.84a14695.641 14695.641 0 0 1-30.163 24.841"/><path fill="#000" d="M113.549 383.609c1.663 10.69 4.877 19.856 9.154 27.51 6.154 11.017 14.505 18.9 23.592 23.678 9.063 4.766 18.862 6.444 27.937 5.059 4.613-.705 9.037-2.2 13.081-4.486 23.019-13.005 28.297-21.512 37.56-36.439 1.032-1.66 2.114-3.404 3.422-5.47-4.79-10.637-9.503-20.955-14.216-31.267l-.721 1.198c-6.566 10.912-10.337 17.18-25.194 25.58a25.297 25.297 0 0 1-7.997 2.872c-5.846 1.05-12.136.114-17.935-2.825-5.777-2.927-11.065-7.841-14.932-14.758-2.276-4.07-4.06-8.833-5.16-14.292-4.645 3.852-9.299 7.704-13.952 11.55-4.883 4.037-9.766 8.068-14.64 12.09zm7.758 28.298c-4.427-7.925-7.738-17.424-9.411-28.507l-.068-.449.353-.291c4.99-4.118 9.991-8.247 14.993-12.381 5-4.134 10.002-8.274 14.992-12.414l1.055-.876.24 1.357c1.037 5.838 2.86 10.88 5.235 15.128 3.703 6.622 8.75 11.32 14.256 14.11 5.483 2.778 11.423 3.664 16.94 2.674a23.69 23.69 0 0 0 7.49-2.69c14.487-8.192 18.178-14.326 24.605-25.007.407-.677.827-1.375 1.507-2.496l.78-1.288.924 2.02c4.996 10.931 9.99 21.86 14.732 32.395l.178.394-.234.368a727.714 727.714 0 0 0-3.642 5.827c-9.402 15.152-14.76 23.786-38.136 36.993-4.216 2.382-8.825 3.942-13.626 4.674-9.398 1.436-19.54-.298-28.914-5.228-9.352-4.917-17.937-13.014-24.25-24.313z"/><path fill="#FEFEFE" d="M531.183 640.356l-58.48 28.461c-19.01-32.67-18.139-29.226-25.635-37.674-2.5-2.817-6.832-8.616-12.212-15.884-3.16-4.266-6.048-9.406-9.607-15.723-3.617-6.418-12.827-15.183-15.766-27.292l-.381-.206c-9.252 1.01-15.205-.598-17.861-4.828 4.682-1.95 9.81-6.158 14.577-7.743l.052-2.227-.108-.45c-13.155 1.023-24.547-1.013-31.568-8.448 0 0 9.418-3.797 19.189-6.564-5.826-1.294-10.162-4.094-13.085-8.416 21.097-7.62 39.075-19.653 59.368-5.36a271.813 271.813 0 0 0-3.868-4.637c-34.291-20.455-56.056-29.84-54.182-48.096 17.7 10.178 41.825 17.922 69.683 32.632 18.084 16.124 30.532 30.992 37.345 44.602 17.288 33.787 14.546 64.648 42.539 87.853"/><path fill="#000" d="M452.286 578.495c-4.012-10.06-7.888-17.77-11.918-23.479-3.978-5.636-8.095-9.298-12.636-11.329-2.478-1.108-4.41-1.776-6.948-1.99-2.587-.217-5.825.025-10.897.741-7.49 1.058-13.79.863-18.906-.584-5.193-1.47-9.164-4.224-11.911-8.261l-.575-.846.965-.346c3.554-1.277 7.11-2.717 10.599-4.13 16.852-6.83 32.196-13.047 49.287-1.083l-.917 1.301c-16.377-11.465-31.34-5.402-47.772 1.256-3.14 1.273-6.333 2.567-9.67 3.79 2.496 3.265 5.971 5.527 10.425 6.787 4.902 1.387 10.988 1.568 18.256.541 5.2-.734 8.54-.98 11.246-.753 2.753.231 4.824.944 7.467 2.126 4.811 2.152 9.143 5.988 13.291 11.865 4.098 5.805 8.03 13.623 12.091 23.809l-1.477.585z"/><path fill="#000" d="M393.805 542.448c-7.682 2.245-15.12 5.144-17.881 6.252 3.085 3.007 7.011 5.016 11.516 6.228 5.572 1.499 12.032 1.78 18.887 1.22l.125 1.646c-7.014.572-13.649.278-19.41-1.272-5.209-1.4-9.702-3.826-13.117-7.56l-.807-.882 1.087-.45c.027-.012 9.413-3.918 19.17-6.77l.43 1.588zm19.098 29.699c-4.68 1.122-9.383 1.234-13.277.53-4.068-.734-7.295-2.374-8.787-4.708l-.516-.807.893-.366c2.125-.87 4.614-2.412 7.141-3.977 3.09-1.914 6.232-3.862 8.964-4.754l.511 1.53c-2.556.836-5.607 2.727-8.606 4.585-2.228 1.38-4.427 2.743-6.425 3.681 1.432 1.55 3.977 2.667 7.119 3.235 3.683.665 8.144.556 12.6-.512l.383 1.563zm109.385 94.603c-20.922 15.139-44.57 12.59-49.876 2.166-3.872-7.607-.18-20.262 13.772-26.949 15.661-7.506 37.218-9.113 45.16-1.525 5.496 5.252 4.243 16.684-9.056 26.308"/><path fill="#000" d="M523.132 666.73a60.829 60.829 0 0 1-8.186 4.978c-8.822 4.445-17.66 6.095-25.026 5.638-7.479-.465-13.48-3.109-16.488-7.223a11.355 11.355 0 0 1-1.07-1.786c-1.89-3.904-1.912-9.004.261-13.98 2.147-4.916 6.438-9.724 13.186-13.123.194-.098.429-.212.703-.343 8.093-3.864 17.755-6.164 26.315-6.452 8.172-.275 15.382 1.292 19.37 5.088.444.421.844.877 1.199 1.363 1.825 2.496 2.533 5.844 1.807 9.567-.71 3.64-2.799 7.646-6.569 11.552-1.546 1.601-3.373 3.186-5.502 4.72zm-8.905 3.562a59.168 59.168 0 0 0 7.967-4.849c2.055-1.481 3.811-3.003 5.29-4.534 3.54-3.667 5.493-7.392 6.148-10.75.64-3.275.038-6.191-1.531-8.337a8.671 8.671 0 0 0-1.01-1.152c-3.655-3.478-10.447-4.908-18.214-4.647-8.35.28-17.779 2.526-25.678 6.296-.189.091-.413.201-.67.331-6.386 3.217-10.432 7.732-12.442 12.335-1.984 4.544-1.983 9.164-.286 12.669l.109.215c.232.453.505.895.818 1.322 2.727 3.731 8.29 6.136 15.286 6.57 7.11.442 15.658-1.16 24.213-5.47z"/><path fill="#4630EB" d="M464.516 337.634c-11.839 6.706-23.676 13.406-35.48 20.106 0 9.427-.002 18.854-.004 28.282 11.84-6.702 23.644-13.402 35.484-20.106v-28.282m-111.837 9.678c-11.817 6.629-23.633 13.257-35.414 19.888l-.06 81.187c11.82-6.675 23.642-13.311 35.462-19.949.016-27.042.032-54.084.012-81.126"/><path fill="#0BDA8F" d="M263.756 339.437a13820.927 13820.927 0 0 1 32.892-18.34l1.201-.667c-.04 47.133-.077 94.267-.122 141.4l-.41.23c-3.54 1.978-7.079 3.958-10.619 5.938-8.416 4.707-16.837 9.417-25.276 14.125l-1.207.673.004-1.375c.03-11.619.051-23.255.068-34.896.016-11.641.028-23.286.041-34.923.024-23.43.05-46.86.073-70.29l3.355-1.875zM390.507 237.45c5.97-3.3 11.94-6.6 17.901-9.9l1.208-.668v1.366c.018 16.921.015 33.828.012 50.724-.001 11.217-.003 22.43 0 33.636.006 14.06.01 28.128.018 42.197.007 14.068.017 28.137.03 42.197l.001.47-3.061 1.69a27257.882 27257.882 0 0 0-33.356 18.448l-1.208.67v-1.369c-.014-16.878-.008-33.77-.003-50.659.004-11.254.008-22.507.006-33.753v-1.263c-.005-27.672-.009-55.411.004-83.115v-.47l.413-.229c6.006-3.324 12.02-6.649 18.035-9.973"/><path fill="#0BDA8F" d="M408.544 230.108c-5.563 3.078-11.133 6.156-16.703 9.235-5.88 3.25-11.76 6.5-17.632 9.749-.012 27.562-.008 55.158-.004 82.687v1.264c.002 11.252-.002 22.51-.005 33.77-.006 16.441-.011 32.885 0 49.316 10.704-5.93 21.434-11.858 32.168-17.786l2.234-1.235c-.014-13.91-.023-27.829-.03-41.748-.007-14.076-.012-28.152-.017-42.218-.004-11.212-.003-22.43 0-33.653.002-16.449.004-32.909-.01-49.381M295.699 322.58a14866.568 14866.568 0 0 0-31.697 17.565l-2.534 1.406-.073 68.92c-.012 11.565-.024 23.14-.04 34.708-.016 11.114-.037 22.222-.065 33.316 8.038-4.457 16.061-8.915 24.079-13.37l10.21-5.673.12-136.871z"/><path fill="#FEFEFE" d="M560.215 308.602c-14.252 0-25.806 11.554-25.806 25.807 0 14.252 11.554 25.806 25.806 25.806s25.807-11.554 25.807-25.806c0-14.253-11.555-25.807-25.807-25.807"/><path fill="#000" d="M560.215 309.134a25.193 25.193 0 0 0-17.872 7.403 25.194 25.194 0 0 0-7.402 17.872 25.191 25.191 0 0 0 7.402 17.871 25.194 25.194 0 0 0 17.872 7.403c6.98 0 13.298-2.829 17.872-7.403a25.194 25.194 0 0 0 7.402-17.871c0-6.98-2.828-13.298-7.402-17.872a25.193 25.193 0 0 0-17.872-7.403zm-19.008 6.266a26.796 26.796 0 0 1 19.008-7.873 26.797 26.797 0 0 1 19.009 7.873 26.797 26.797 0 0 1 7.873 19.009 26.797 26.797 0 0 1-7.873 19.008 26.797 26.797 0 0 1-19.009 7.873 26.796 26.796 0 0 1-19.008-7.873 26.796 26.796 0 0 1-7.874-19.008 26.796 26.796 0 0 1 7.874-19.009z"/><path fill="#000" d="M544.382 312.978c-6.075 4.746-9.973 12.087-9.973 20.326 0 14.31 11.757 25.911 26.26 25.911 5.875 0 11.3-1.905 15.675-5.122-29.096 5.936-39.888-23.557-31.962-41.115"/><path fill="#000" d="M542.045 317.017a24.59 24.59 0 0 0-4.64 6.472 24.008 24.008 0 0 0-2.483 10.664c0 6.765 2.797 12.891 7.318 17.325 4.521 4.434 10.768 7.176 17.668 7.176a25.42 25.42 0 0 0 7.86-1.236 25.154 25.154 0 0 0 3.891-1.636c-5.654.587-10.548-.224-14.673-2.026-4.293-1.875-7.743-4.82-10.348-8.379-2.593-3.544-4.345-7.695-5.254-12.003-1.16-5.502-.942-11.27.66-16.357zm-6.069 5.796a26.264 26.264 0 0 1 7.452-9.1l2.524-1.96-1.31 2.884c-2.474 5.446-3.038 12.111-1.706 18.427.865 4.1 2.529 8.046 4.987 11.406 2.448 3.345 5.686 6.11 9.708 7.867 4.734 2.068 10.57 2.745 17.508 1.338l3.494-.708-2.865 2.093a26.679 26.679 0 0 1-7.504 3.837 27.018 27.018 0 0 1-8.356 1.316c-7.339 0-13.983-2.917-18.791-7.633-4.81-4.716-7.784-11.231-7.784-18.427 0-4.062.95-7.909 2.643-11.34zm-80.062 320.97c.728-3.722 2.007-6.992 3.836-9.811 1.834-2.827 4.216-5.191 7.144-7.09l.848 1.328c-2.742 1.778-4.968 3.985-6.678 6.621-1.715 2.644-2.918 5.73-3.608 9.255l-1.542-.303z"/><path fill="#4630EB" d="M394.624 321.215l82.816-46.166v4.567l-82.816 46.19v-4.59zm0-28.04l116.797-65.144.407.722v3.642l-117.204 65.371v-4.591zm0-28.879l117.204-65.371v4.59l-117.204 65.372v-4.59zm99.891 1.205l16.994-9.478.319.566v3.847l-17.313 9.632V265.5z"/><path fill="#000" d="M560.753 412.903c-11.58 0-20.968 2.407-20.968 5.376 0 2.97 9.387 5.377 20.968 5.377 11.58 0 20.967-2.407 20.967-5.377 0-2.969-9.387-5.376-20.967-5.376"/><path fill="#4630EB" d="M133.622 120.43l-27.026 13.283-27.026 13.283 27.419 16.825 27.42 16.824-.393-30.107zm178.206 522.58l-15.054-15.053-15.054 15.054 15.054 15.054z"/><path fill="#000" d="M553.763 405.376c0-4 3.732-4.586 7.293-5.145 2.573-.404 5.037-.79 5.092-2.57.058-1.913-2.505-2.418-5.173-2.942-3.531-.695-7.212-1.42-7.212-5.256 0-3.997 3.77-4.599 7.344-5.169 2.587-.413 5.046-.805 5.042-2.57-.004-1.933-2.572-2.431-5.227-2.946-3.517-.68-7.159-1.386-7.159-5.23 0-4.023 2.952-4.14 6.034-4.262 2.563-.102 5.245-.208 5.245-3.695h1.598c0 5.012-3.467 5.15-6.78 5.281-2.298.091-4.5.179-4.5 2.676 0 2.534 2.982 3.112 5.861 3.67 3.31.64 6.512 1.26 6.52 4.506.006 3.118-3.108 3.615-6.384 4.138-2.919.466-5.996.956-5.996 3.6 0 2.53 3.02 3.125 5.92 3.695 3.346.658 6.56 1.29 6.459 4.551v.003c-.097 3.093-3.2 3.58-6.44 4.088-2.9.455-5.94.932-5.94 3.577h-1.597zm-81.43 263.441c-12.035-20.532-20.41-30.93-27.78-40.079-12.222-15.174-21.697-26.937-40.325-75.213-1.547-4.01-1.72-6.894-.974-8.81.54-1.382 1.53-2.27 2.825-2.723 1.214-.424 2.686-.445 4.284-.12 4.066.832 9.099 3.963 12.694 8.417 1.422 1.761 3.019 3.845 4.852 6.237 2.81 3.668 6.178 8.063 10.27 13.066l.03.039.026.04c4.74 7.533 10.22 10.52 14.794 10.4a9.262 9.262 0 0 0 4.984-1.58c1.443-.975 2.626-2.371 3.431-4.087 2.08-4.433 1.642-10.98-3.254-18.02l-.037-.052-.01-.02a162.288 162.288 0 0 0-9.706-15.695c-3.66-5.228-7.878-10.623-12.99-16.58-4.943-2.925-9.58-5.597-13.929-8.104-26.462-15.252-42.418-24.448-40.754-40.544l.123-1.195 1.059.574c11.399 6.194 22.46 10.875 33.027 15.346 29.748 12.587 55.6 23.524 74.78 61.995 6.394 12.41 10.064 24.4 13.544 35.763 5.956 19.454 11.345 37.055 28.961 51.552l-1.018 1.234c-17.99-14.804-23.446-32.626-29.477-52.323-3.46-11.3-7.11-23.221-13.442-35.509l-.007-.01c-18.915-37.935-44.512-48.766-73.97-61.23-10.255-4.34-20.974-8.875-32.07-14.823-.614 14.346 14.85 23.26 40.049 37.785 4.418 2.547 9.131 5.263 14.054 8.178l.114.068.087.102c5.177 6.024 9.453 11.493 13.172 16.806a163.523 163.523 0 0 1 9.798 15.83c5.225 7.544 5.64 14.664 3.348 19.55-.929 1.978-2.302 3.594-3.984 4.731a10.862 10.862 0 0 1-5.846 1.856c-5.078.133-11.084-3.056-16.162-11.105-4.118-5.038-7.471-9.413-10.27-13.067-1.832-2.39-3.427-4.47-4.828-6.206-3.364-4.167-8.025-7.088-11.763-7.851-1.32-.27-2.502-.264-3.436.062-.852.297-1.503.881-1.857 1.79-.61 1.566-.416 4.059.974 7.663 18.533 48.03 27.942 59.712 40.08 74.78 7.412 9.202 15.835 19.658 27.918 40.274l-1.389.808z"/></g></svg>