<svg xmlns="http://www.w3.org/2000/svg" width="179" height="180" viewBox="0 0 179 180">
    <g fill="none" fill-rule="evenodd">
        <path fill="#ADB5BD" d="M177.938 59.82l-37.235-20.913-37.206-20.905-13.868 7.465 13.889 29.227.02 36.514 37.123 20.835 23.284 28.309 13.868-7.465.063-36.512z"/>
        <path fill="#FFF" d="M177.159 60.277l-36.838-20.69-36.832-20.694-12.836 6.91 13.644 28.712.02 36.235 36.85 20.682 22.972 27.93 12.896-6.942.124-72.143zm-36.075-22.051l37.634 21.136-.127 73.992-14.84 7.989-23.596-28.688-37.395-20.988-.02-36.794-14.133-29.74 14.899-8.021 37.578 21.114z"/>
        <path fill="#4630EB" d="M164.07 67.284c-12.424-6.976-24.84-13.945-37.235-20.912-12.41-6.976-24.826-13.94-37.206-20.905a1368819.92 1368819.92 0 0 1 .042 73.206c12.366 6.946 24.748 13.892 37.122 20.835 12.36 6.936 24.74 13.886 37.152 20.844l.063-36.512.062-36.556"/>
        <path fill="#FFF" d="M163.29 67.742l-9.084-5.1c-9.26-5.2-18.512-10.395-27.753-15.59-5.352-3.008-10.706-6.015-16.057-9.02-6.668-3.745-13.333-7.488-19.987-11.23l.04 71.413c9.865 5.54 19.739 11.081 29.61 16.62l15.05 8.445c9.339 5.24 18.69 10.489 28.06 15.742l.122-71.28zm-8.32-6.463l9.88 5.548-.128 74.856-1.159-.65c-9.756-5.47-19.494-10.934-29.217-16.39l-15.05-8.446A76707.147 76707.147 0 0 1 89.29 99.354l-.397-.223c-.012-24.999-.027-49.998-.042-74.998l1.161.653c7.04 3.96 14.092 7.921 21.148 11.884 5.352 3.005 10.705 6.012 16.058 9.02 9.24 5.195 18.493 10.39 27.752 15.589z"/>
        <path fill="#FFF" d="M127.221 64.5c2.37 1.33 4.508 3.653 6.082 6.196 1.698 2.74 2.754 5.768 2.752 8.108-.002 2.357-.601 3.927-1.63 4.895-.848.8-1.948 1.164-3.22 1.203a7503.047 7503.047 0 0 0 1.919 14.834l.2 1.537-6.906-3.872-6.017-3.376.08-.533c.524-3.446 1.052-6.904 1.581-10.369l.413-2.703c-1.399-1.497-2.586-3.121-3.442-4.89-.92-1.903-1.456-3.969-1.457-6.22 0-1.227.284-2.331.797-3.246a5.28 5.28 0 0 1 1.96-2.003c.81-.47 1.764-.73 2.82-.73 1.245-.001 2.627.361 4.068 1.17zm4.757 7.014c-1.445-2.334-3.388-4.455-5.52-5.651-1.2-.674-2.32-.976-3.306-.975-.769 0-1.458.186-2.037.523a3.724 3.724 0 0 0-1.38 1.417c-.387.69-.602 1.534-.601 2.482 0 1.997.48 3.839 1.303 5.541.834 1.723 2.023 3.308 3.43 4.771l.268.279-.527 3.454c-.503 3.287-1.003 6.567-1.5 9.837l5.074 2.847 4.197 2.354a14200.185 14200.185 0 0 1-1.835-14.199l-.122-.955.959.079c1.247.103 2.282-.101 2.976-.755.72-.678 1.139-1.875 1.14-3.759.002-2.057-.965-4.78-2.519-7.29z"/>
        <path fill="#FFF" d="M126.84 65.181c4.675 2.624 8.44 9.383 8.436 13.623-.004 4.24-2.036 5.534-4.96 5.293.483 3.757.969 7.516 1.456 11.271a25921.13 25921.13 0 0 1-6.75-3.787c.678-4.467 1.364-8.951 2.05-13.446-2.922-3.038-4.947-6.605-4.95-10.853 0-1.23.32-2.315.888-3.17 1.151-.03 2.453.297 3.83 1.07"/>
        <path fill="#FFF" d="M127.221 64.5c2.37 1.33 4.508 3.653 6.082 6.196 1.698 2.74 2.754 5.768 2.752 8.108-.002 2.357-.6 3.927-1.629 4.895-.849.8-1.95 1.164-3.22 1.203a6161.921 6161.921 0 0 0 1.338 10.369l.2 1.538-8.576-4.812.08-.532c.524-3.45 1.053-6.91 1.583-10.378l.411-2.694c-1.399-1.498-2.586-3.122-3.442-4.892-.92-1.902-1.455-3.968-1.457-6.218 0-.682.087-1.324.253-1.914a5.936 5.936 0 0 1 .763-1.688l.124-.187.354-.157.154-.004c.666-.018 1.371.07 2.104.274.69.193 1.402.487 2.126.893zm4.757 7.014c-1.445-2.334-3.388-4.455-5.52-5.651a8.092 8.092 0 0 0-1.779-.753 5.875 5.875 0 0 0-1.23-.212c-.145.274-.263.57-.35.886-.13.462-.198.964-.198 1.499.001 1.996.48 3.838 1.304 5.54.833 1.723 2.022 3.308 3.429 4.771l.268.28-.526 3.445c-.502 3.29-1.004 6.572-1.501 9.845l4.925 2.764-.53-4.097a6894.39 6894.39 0 0 1-.726-5.637l-.122-.956.959.08c1.247.103 2.282-.101 2.976-.755.72-.678 1.139-1.875 1.14-3.759.002-2.057-.965-4.78-2.519-7.29z"/>
        <path fill="#00F" d="M113.344 111.263c-.005-2.78-.02-5.57-.026-8.365 0-.468-.153-.811-.388-.992-.258-.178-.586-.191-.937.005v.01c-1.941 1.09-3.883 2.182-5.815 3.264-.608.341-.88.49-1.271 1.217-.234.443-.385.967-.384 1.435l-.012.006c.016 2.79.021 5.585.026 8.36l-1.474 5.62-4.28-2.395-.01-5.18c-.003-1.849-.121-3.733.201-5.558.744-4.214 3.333-8.85 6.843-10.817v-.015l.246-.138c-.01-5.395-.026-10.79-.04-16.185l5.766-3.237 4.28 2.395c.185.103-4.26 2.5-4.24 13.795 1.582-.886 3.558-1.372 5.162-.177.548.411 3.454 1.702 4.064 2.246.802.712-1.992 1.672-1.982 3.122l.014 8.36-1.462 5.619-4.28-2.395z"/>
        <path fill="#FFF" d="M112.566 111.233c-.003-1.377-.008-2.756-.013-4.136-.006-1.398-.011-2.798-.014-4.199a.858.858 0 0 0-.067-.349.222.222 0 0 0-.035.012.719.719 0 0 1-.063.04l.001.002-1.065.598c-1.586.89-3.171 1.781-4.75 2.665l-.011.007c-.465.26-.674.378-.955.898l-.003.005c-.09.172-.163.36-.214.553-.049.18-.076.354-.075.508a.774.774 0 0 1-.012.13c.016 2.73.02 5.467.025 8.184v.052a.781.781 0 0 1-.024.195l-1.474 5.62a.78.78 0 0 1-1.15.476l-4.264-2.385a.78.78 0 0 1-.4-.711l-.008-5.15c0-.373-.006-.758-.012-1.144-.022-1.516-.044-3.043.222-4.549.403-2.287 1.329-4.694 2.64-6.767 1.19-1.88 2.701-3.493 4.438-4.51-.006-3.467-.015-6.936-.024-10.404l-.014-5.339a.78.78 0 0 1 .398-.679l-.001-.002 5.765-3.237a.78.78 0 0 1 .805.025l4.237 2.37c.955.534.64.83-.004 1.433-.699.654-3.578 3.35-3.821 11.809a6.322 6.322 0 0 1 2.014-.43c.97-.034 1.938.206 2.817.861l.02.015c.196.139.825.457 1.513.805 1.023.516 2.165 1.094 2.587 1.468.694.617.533 1.203-.017 1.822-.182.204-.418.406-.671.623-.476.406-1.038.887-1.036 1.258l.015 8.363a.784.784 0 0 1-.024.196l-1.462 5.618a.78.78 0 0 1-1.15.476l-4.264-2.385a.78.78 0 0 1-.4-.71zm-.079-8.686h.003-.003z"/>
        <path fill="#15181A" d="M82.354 110.035c-18.023 10.114-29.743 16.683-39.401 22.107.129.239.25.49.361.753-.529-1.201-1.368-2.096-2.936-2.77.958-1.437 1.813-3.27 2.565-5.503 15.403-8.606 19.247-10.794 39.4-22.107 18.344-10.298 29.514-16.574 39.814-22.345.062-.034.119-.06.171-.078a3.284 3.284 0 0 1 2.912 5.887v.003c-34.748 19.434-6.062 3.389-42.886 24.053"/>
        <path fill="#FFF" d="M82.736 110.716c-8.144 4.57-15.002 8.417-20.963 11.76a51661.25 51661.25 0 0 0-17.796 9.986l.052.118.003.01-1.432.62a4.147 4.147 0 0 0-.908-1.339c-.402-.39-.927-.73-1.623-1.029l-.86-.37.521-.781c.452-.676.885-1.46 1.3-2.35.42-.902.812-1.891 1.174-2.967l.096-.286.264-.147c9.527-5.323 14.852-8.316 23.078-12.94 4.244-2.385 9.29-5.221 16.319-9.167l14.54-8.163c10.327-5.798 18.016-10.116 25.274-14.182h.003a1.957 1.957 0 0 1 .232-.11c.263-.125.545-.223.84-.29a4.055 4.055 0 0 1 3.779 1.087 4.055 4.055 0 0 1 .592 4.996 4.1 4.1 0 0 1-1.199 1.252v.013l-.17.095a4.15 4.15 0 0 1-.237.133l-2.007 1.123a17788.35 17788.35 0 0 0-17.004 9.514c-1.86 1.043-1.998 1.121-2.205 1.238-2.12 1.197-6.04 3.41-21.663 12.176zm-21.727 10.399c5.962-3.344 12.819-7.19 20.963-11.761 17.508-9.824 20.205-11.347 21.664-12.17l2.205-1.244c.857-.48 4.981-2.788 17.01-9.514l1.608-.9V85.5l.427-.217a2.496 2.496 0 0 0 1.37-2.232c0-.691-.28-1.317-.733-1.77a2.493 2.493 0 0 0-1.769-.732c-.2 0-.387.02-.561.06a2.484 2.484 0 0 0-.526.185l-.03.014-.055.02-.012.005a.486.486 0 0 0-.032.017v.001c-7.257 4.066-14.947 8.384-25.274 14.182l-14.54 8.163c-7.03 3.946-12.075 6.782-16.318 9.167-7.554 4.246-12.47 7.009-22.822 12.793a29.755 29.755 0 0 1-1.137 2.846c-.301.644-.617 1.246-.949 1.805.499.282.92.596 1.281.946.13.125.25.255.362.387l17.868-10.025z"/>
        <path fill="#15181A" d="M117.625 113.658c-.005-2.78-.02-5.57-.026-8.365 0-.468-.153-.811-.388-.992-.258-.178-.586-.191-.936.005v.01c-1.942 1.09-3.884 2.182-5.816 3.264-.608.341-.88.49-1.271 1.217-.525.996-.392 2.02-.387 3.106.01 2.236.013 4.472.017 6.695-1.918 1.077-3.837 2.154-5.755 3.224l-.01-5.972c-.002-1.083-.048-2.186.006-3.258.226-4.518 2.288-9.426 7.285-12.477-.01-5.395-.026-10.79-.04-16.184 1.919-1.075 3.836-2.153 5.766-3.238.008 4.412.013.991.04 16.19 1.582-.886 3.558-1.372 5.162-.176 1.278.957 2.066 2.829 2.082 5.367l.014 8.36a2266.987 2266.987 0 0 0-5.743 3.224"/>
        <path fill="#FFF" d="M116.847 113.604c-.003-1.37-.008-2.74-.014-4.113-.005-1.397-.01-2.797-.013-4.198a.857.857 0 0 0-.067-.348.243.243 0 0 0-.022.006.781.781 0 0 1-.112.068l-1.083.608c-1.568.88-3.135 1.76-4.695 2.634l-.011.007c-.464.26-.674.377-.955.898l-.002.003c-.34.652-.322 1.401-.303 2.184.004.174.008.35.01.547l.01 3.355.007 3.343c0 .291-.16.546-.398.679v.002l-.368.206c-1.54.865-3.084 1.732-5.39 3.018a.78.78 0 0 1-1.157-.71l-.01-5.943c0-.323-.005-.66-.01-.997a36.245 36.245 0 0 1 .016-2.298c.127-2.537.806-5.191 2.213-7.6 1.162-1.991 2.82-3.816 5.071-5.27-.006-3.473-.015-6.944-.024-10.416l-.014-5.338c0-.292.16-.547.398-.68l-.001-.002c1.7-.952 3.4-1.907 5.107-2.867l.658-.37a.78.78 0 0 1 1.161.736c.003 1.5.005 2.08.008 2.832.006 1.35.014 3.253.03 12.076a6.33 6.33 0 0 1 2.032-.437c.971-.034 1.938.206 2.817.862l.032.024c.753.574 1.354 1.405 1.763 2.456.38.981.593 2.162.601 3.51l.015 8.363c0 .292-.16.546-.398.68l.001.001a3918.437 3918.437 0 0 0-5.743 3.224.78.78 0 0 1-1.16-.735zm1.544-4.113l.01 2.834 1.71-.96 2.478-1.389-.014-7.899c-.007-1.15-.184-2.142-.498-2.954-.302-.777-.728-1.379-1.251-1.777l-.018-.014c-.569-.423-1.2-.578-1.84-.556-.836.029-1.702.355-2.477.788v-.001a.779.779 0 0 1-1.16-.68 5265.697 5265.697 0 0 0-.037-14.858c-1.407.79-2.808 1.578-4.21 2.363l.013 4.881c.01 3.6.02 7.2.025 10.801a.78.78 0 0 1-.372.71c-2.202 1.345-3.803 3.07-4.908 4.962-1.275 2.184-1.89 4.588-2.005 6.887-.036.731-.026 1.47-.015 2.206.005.336.01.671.01 1.015l.008 4.645 4.198-2.355-.005-2.885c-.003-1.112-.006-2.229-.011-3.349 0-.16-.005-.34-.01-.516-.023-.99-.046-1.936.477-2.939l.011-.024c.498-.923.83-1.11 1.566-1.521l.011-.007c1.56-.874 3.127-1.754 4.695-2.634l1.022-.574a.79.79 0 0 1 .099-.066c.289-.161.584-.239.872-.24a1.525 1.525 0 0 1 .923.299c.231.179.417.427.537.735.097.249.152.543.153.874.002 1.401.008 2.8.013 4.198zm-1.623-4.549h.004-.004z"/>
        <path fill="#FFF" d="M110.043 96.149l-.543-1.363c.522-.73.746-1.462.754-2.145.03-2.52-2.873-4.397-4.55-3.25.87-.578 1.44-1.421 1.709-2.53l2.898-.552.02 8.012-.288 1.828"/>
        <path fill="#FFF" d="M109.32 96.435l-.702-1.757.246-.344c.21-.293.359-.58.457-.86.102-.29.15-.573.154-.842a2.666 2.666 0 0 0-.485-1.534 3.142 3.142 0 0 0-.994-.932c-.365-.214-.752-.337-1.114-.341a1.27 1.27 0 0 0-.72.198l-.028.018-.87-1.295.034-.023a3.09 3.09 0 0 0 .838-.835 3.7 3.7 0 0 0 .52-1.21l.118-.49 4.313-.821c.008 3.004.017 6.01.023 9.013-.245 1.564-.492 3.128-.739 4.692l-1.052-2.637zm-.536-7.612a4.7 4.7 0 0 1 .756.554l-.006-2.127-1.506.287c-.098.295-.217.571-.358.83.382.093.759.248 1.114.456zM109.926 84.612l-4.281-2.396.757-1.362 4.281 2.395z"/>
        <path fill="#15181A" d="M111.628 31.85c0-.084-.002-.167 0-.25l-.002-9.73C111.623 7.18 123.746.225 136.19 7.198c6.058 3.4 11.545 9.086 15.522 15.504 3.962 6.412 6.408 13.553 6.393 19.92l-.011 8.562a5.318 5.318 0 1 1-10.573.823l.01-9.96c.004-4.049-1.551-8.594-4.074-12.663-2.522-4.077-6.019-7.678-9.856-9.846-5.103-2.86-11.387-3.953-11.388 3.61v7.788c.033.241.07.488.05.738-.416 5.445-10.465 5.334-10.633.177l-.002-.002z"/>
        <path fill="#FFF" d="M110.849 31.85v-.083-.176l-.002-9.72c-.001-4.085.907-7.599 2.487-10.418 1.384-2.47 3.284-4.409 5.543-5.732 2.257-1.323 4.866-2.026 7.669-2.026 3.176 0 6.596.9 10.026 2.822 3.03 1.7 5.918 3.96 8.551 6.59 2.732 2.729 5.19 5.86 7.251 9.185 2.053 3.323 3.706 6.838 4.832 10.345 1.088 3.392 1.685 6.78 1.678 9.986l-.012 8.502a5.956 5.956 0 0 1 .067.882c0 1.684-.683 3.21-1.787 4.313a6.081 6.081 0 0 1-4.314 1.787 6.082 6.082 0 0 1-4.313-1.787 6.082 6.082 0 0 1-1.787-4.313h.003l.011-9.96c.002-1.903-.359-3.93-1.014-5.967-.685-2.13-1.692-4.268-2.944-6.286a30.939 30.939 0 0 0-4.406-5.58c-1.6-1.6-3.348-2.97-5.167-3.998l-.002.003c-2.128-1.193-4.45-2.064-6.36-2.064-.707 0-1.35.12-1.892.392-.517.259-.956.667-1.286 1.256-.438.782-.69 1.875-.69 3.345v7.725c.037.27.075.547.05.86-.172 2.266-1.718 3.714-3.663 4.376-.84.286-1.759.42-2.67.407a7.76 7.76 0 0 1-2.633-.485c-1.662-.635-2.947-1.87-3.186-3.693l-.039-.021-.001-.468zm1.557-.241v.136l.003.081c.044 1.348.98 2.27 2.222 2.745a6.178 6.178 0 0 0 2.096.388 6.431 6.431 0 0 0 2.15-.328c1.389-.473 2.49-1.474 2.608-3.015a2.684 2.684 0 0 0-.041-.542l-.01-.075v-7.85c0-1.759.322-3.106.885-4.11.489-.872 1.156-1.487 1.952-1.885.77-.385 1.647-.557 2.588-.557 2.205 0 4.793.954 7.124 2.26v.003c1.953 1.103 3.813 2.558 5.505 4.248a32.537 32.537 0 0 1 4.632 5.867c1.318 2.125 2.378 4.38 3.102 6.63.703 2.184 1.09 4.37 1.087 6.441l-.01 9.96h.003c0 1.254.508 2.388 1.328 3.209a4.524 4.524 0 0 0 3.208 1.328 4.524 4.524 0 0 0 3.208-1.328 4.523 4.523 0 0 0 1.316-3.563 4.56 4.56 0 0 0-.038-.35l-.01-.059.012-8.62c.007-3.039-.564-6.266-1.605-9.51-1.087-3.388-2.686-6.788-4.672-10.002-1.996-3.22-4.378-6.254-7.025-8.898-2.534-2.531-5.309-4.702-8.216-6.334-3.192-1.79-6.35-2.627-9.262-2.627-2.522 0-4.862.63-6.881 1.812-2.018 1.183-3.72 2.925-4.969 5.153-1.456 2.597-2.292 5.853-2.292 9.653l.002 9.739z"/>
        <path fill="#15181A" d="M1.138 2.013c7.791 4.379 15.646 8.79 23.506 13.2l23.619 13.25c7.8 4.376 15.65 8.783 23.534 13.207 7.84 4.398 15.734 8.828 23.666 13.274l.014 8.186.013 8.07.013 8.023.013 8.019c-4.82-2.69-9.564-5.345-14.307-7.994.013 2.336.027 4.7.03 7.04.005 2.356.008 4.729.012 7.102-2.06-3.526-4.094-7.02-6.151-10.534-2.025-3.458-4.063-6.971-6.152-10.476-5.668-3.174-11.327-6.333-16.976-9.495-5.64-3.157-11.308-6.327-16.966-9.496-5.621-3.149-11.278-6.311-16.929-9.475-5.638-3.157-11.28-6.312-16.872-9.446l-.017-8.151-.017-8.16-.017-8.119-.016-8.025"/>
        <path fill="#FFF" d="M1.52 1.332a38947.603 38947.603 0 0 0 23.505 13.2l23.62 13.25 12.983 7.285 10.55 5.922 1.282.719c7.418 4.162 14.884 8.35 22.385 12.555l.396.222.056 34.085-1.16-.647-7.699-4.302c-1.818-1.016-3.63-2.03-5.443-3.042l.012 2.185c.005 1.174.01 2.351.011 3.525l.017 9.991-1.458-2.496-2.337-4.003c-1.702-2.918-3.4-5.827-3.812-6.531l-1.537-2.624c-1.544-2.644-3.101-5.309-4.504-7.666l-8.73-4.884-8.067-4.51-6.152-3.443-10.814-6.053c-3.08-1.725-6.17-3.455-9.265-5.186-2.553-1.429-5.11-2.859-7.664-4.29l-5.574-3.119C8.344 39.361 4.572 37.25.823 35.15l-.396-.222L.357.678l1.163.654zm10.816 7.867L1.919 3.348l.063 30.66c3.62 2.029 7.258 4.065 10.903 6.105l5.574 3.12 7.663 4.289c3.095 1.731 6.186 3.46 9.266 5.186l10.814 6.053 6.152 3.443 8.06 4.51 8.916 4.985.18.1.107.181c1.694 2.842 3.165 5.36 4.624 7.858 1.166 1.997.782 1.344 1.53 2.624 2.141 3.656 2.98 5.094 3.82 6.531l.877 1.505-.007-4.21c-.002-1.166-.007-2.341-.012-3.518l-.019-3.519-.007-1.335 1.165.65 6.608 3.693 6.539 3.654-.05-30.51c-7.367-4.13-14.701-8.245-21.988-12.333l-1.282-.72c-3.524-1.977-7.042-3.95-10.55-5.92L47.88 29.142l-23.62-13.25A32291.41 32291.41 0 0 1 12.337 9.2z"/>
        <path fill="#0CDA8F" d="M22.683 24.56c2.679 1.507 4.853 5.281 4.86 8.438.015 3.157-2.14 4.506-4.828 3-2.678-1.506-4.853-5.281-4.859-8.443-.016-3.157 2.149-4.5 4.827-2.994"/>
        <path fill="#FFF" d="M23.065 23.88c1.462.821 2.778 2.25 3.725 3.893.943 1.636 1.527 3.506 1.531 5.222.005 1.071-.214 1.975-.607 2.677a3.36 3.36 0 0 1-1.21 1.266 3.285 3.285 0 0 1-1.688.455c-.767.004-1.61-.226-2.483-.715-1.462-.821-2.778-2.249-3.725-3.894-.942-1.637-1.527-3.508-1.53-5.226-.006-1.071.214-1.975.608-2.676a3.37 3.37 0 0 1 1.213-1.264 3.286 3.286 0 0 1 1.685-.454c.768-.004 1.61.226 2.481.716zm2.375 4.668c-.811-1.409-1.922-2.622-3.138-3.306-.633-.356-1.212-.523-1.712-.52-.34.001-.642.082-.897.234a1.824 1.824 0 0 0-.645.69c-.268.476-.417 1.118-.413 1.906v.003c.002 1.442.508 3.038 1.323 4.454.812 1.41 1.922 2.624 3.139 3.307.633.355 1.213.522 1.712.52.338-.002.64-.083.896-.235.256-.153.475-.386.647-.692.267-.477.416-1.12.412-1.908v-.003c-.003-1.44-.509-3.034-1.324-4.45z"/>
        <path fill="#0CDA8F" d="M39.746 34.149c2.679 1.503 4.862 5.28 4.868 8.435.006 3.155-2.158 4.493-4.837 2.988-2.679-1.5-4.853-5.28-4.859-8.431-.006-3.16 2.15-4.496 4.828-2.992"/>
        <path fill="#FFF" d="M40.128 33.468c1.462.82 2.781 2.249 3.73 3.894.945 1.637 1.532 3.507 1.535 5.222.002 1.066-.218 1.964-.61 2.663a3.375 3.375 0 0 1-1.22 1.273 3.299 3.299 0 0 1-1.696.45c-.765 0-1.605-.23-2.472-.717-1.46-.818-2.776-2.244-3.723-3.887-.944-1.638-1.53-3.51-1.532-5.225-.002-1.07.218-1.97.61-2.67.308-.547.72-.975 1.216-1.27a3.284 3.284 0 0 1 1.692-.449c.764 0 1.602.229 2.47.716zm2.38 4.67c-.813-1.41-1.926-2.625-3.144-3.308-.63-.354-1.208-.52-1.706-.52-.336 0-.64.081-.898.235a1.817 1.817 0 0 0-.648.69c-.267.476-.417 1.118-.415 1.906.003 1.437.509 3.033 1.325 4.45.81 1.407 1.92 2.619 3.137 3.3.63.354 1.208.521 1.708.52.338 0 .642-.08.902-.235.259-.154.48-.387.651-.692.267-.476.417-1.115.415-1.9-.002-1.437-.51-3.031-1.326-4.446z"/>
        <path fill="#0CDA8F" d="M56.827 43.738c2.684 1.504 4.853 5.278 4.859 8.431-.004 3.15-2.169 4.484-4.847 2.978-2.679-1.501-4.853-5.273-4.849-8.423-.006-3.155 2.154-4.49 4.837-2.986"/>
        <path fill="#FFF" d="M57.21 43.057c1.463.82 2.778 2.245 3.724 3.887.943 1.637 1.528 3.509 1.53 5.225 0 1.061-.221 1.956-.612 2.651-.31.552-.726.982-1.225 1.277a3.3 3.3 0 0 1-1.704.448c-.765 0-1.602-.231-2.466-.717-1.462-.82-2.779-2.246-3.724-3.888-.942-1.636-1.524-3.504-1.522-5.216-.002-1.065.218-1.962.609-2.66a3.37 3.37 0 0 1 1.218-1.273 3.29 3.29 0 0 1 1.698-.45c.764-.001 1.604.228 2.473.716zm2.374 4.663c-.81-1.407-1.92-2.619-3.138-3.301-.632-.355-1.21-.522-1.71-.52-.34 0-.644.08-.904.235a1.821 1.821 0 0 0-.65.693c-.266.475-.415 1.113-.413 1.897-.002 1.436.5 3.028 1.313 4.44.81 1.408 1.921 2.62 3.138 3.302.63.353 1.205.521 1.703.522.342 0 .649-.08.91-.235.261-.154.484-.389.657-.696.266-.474.416-1.11.417-1.888-.002-1.439-.508-3.034-1.323-4.45z"/>
        <path fill="#0CDA8F" d="M73.909 53.337c2.67 1.497 4.834 5.26 4.84 8.413.004 3.144-2.16 4.481-4.83 2.987-2.669-1.505-4.852-5.277-4.848-8.426-.006-3.148 2.169-4.472 4.838-2.974"/>
        <path fill="#FFF" d="M74.29 52.656c1.458.817 2.77 2.239 3.712 3.878.94 1.634 1.522 3.5 1.525 5.216.001 1.059-.218 1.952-.608 2.65-.308.55-.722.98-1.221 1.276a3.303 3.303 0 0 1-1.701.452c-.762 0-1.597-.227-2.46-.71-1.459-.823-2.777-2.252-3.724-3.897-.94-1.635-1.523-3.5-1.52-5.21-.002-1.058.216-1.95.606-2.645.309-.55.723-.98 1.222-1.275a3.307 3.307 0 0 1 1.7-.45c.765 0 1.604.229 2.47.715zm2.363 4.654c-.808-1.404-1.914-2.613-3.125-3.293-.63-.352-1.207-.519-1.707-.518-.34 0-.646.081-.907.236-.26.154-.48.388-.653.695-.264.47-.413 1.104-.411 1.881-.002 1.434.501 3.023 1.313 4.434.812 1.411 1.924 2.626 3.138 3.31.625.35 1.199.516 1.696.515.34 0 .645-.082.907-.237a1.83 1.83 0 0 0 .653-.698c.265-.472.414-1.107.412-1.885-.002-1.438-.505-3.029-1.316-4.44z"/>
        <path fill="#0CDA8F" d="M90.8 131.015c-.156 4.855 1.981 6.736 5.275 6.841 8.203.262 23.17-9.373 30.217-13.91 1.07-.689 1.96-1.261 2.641-1.68 4.145-2.544 8.296-4.914 11.727-6.482 3.615-1.651 6.516-2.406 7.965-1.568.862.499 1.287 1.334 1.277 2.507-.01.981-.343 2.215-1 3.702l-.032.058c-.963 1.773-1.911 3.514-2.842 5.222-10.341 18.99-18.447 33.873-20.153 41.57-.342 1.545-.385 2.797-.146 3.703.15.568.407.98.768 1.216.368.242.877.328 1.523.24 1.079-.145 2.468-.759 4.15-1.909l30.763-21.027.045-.024c1.304-.676 2.6-1.2 3.735-1.469 1.125-.266 2.129-.287 2.893.026h.003c.055.022.103.043.142.063.739.356 1.204.998 1.293 1.985.072.801-.128 1.851-.677 3.192-.14.341-.291.683-.456 1.025-1.068 2.208-4.804 11.82-5.545 18.367-.217 1.922-.176 3.54.274 4.55.35.782 1.037 1.146 2.188.877 1.97-.459 5.02-2.469 9.545-6.722l1.069 1.136c-4.744 4.46-8.04 6.59-10.26 7.107-2.037.475-3.289-.248-3.965-1.764-.576-1.29-.648-3.18-.402-5.355.763-6.74 4.596-16.61 5.69-18.874.17-.35.309-.66.42-.934.45-1.096.618-1.902.568-2.465-.034-.376-.185-.607-.42-.72a1.33 1.33 0 0 0-.056-.027c-.438-.179-1.12-.14-1.944.055-1.002.237-2.16.704-3.335 1.31l-30.687 20.977c-1.89 1.291-3.51 1.988-4.824 2.166-1.031.14-1.898-.033-2.585-.485-.695-.456-1.173-1.173-1.421-2.12-.3-1.14-.264-2.643.133-4.435 1.754-7.915 9.906-22.882 20.306-41.98.922-1.693 1.862-3.418 2.816-5.174.572-1.293.861-2.319.868-3.075.005-.567-.161-.949-.5-1.145-.946-.546-3.366.187-6.537 1.635-3.355 1.533-7.454 3.875-11.561 6.397-.637.39-1.533.967-2.612 1.662-7.175 4.62-22.417 14.431-31.107 14.154-4.23-.135-6.976-2.46-6.785-8.448l1.557.049z"/>
        <path fill="#FFF" d="M109.965 100.796l-4.28-2.395.757-1.362 4.28 2.395zM29.704 112.652c4.052-2.275 7.72-2.132 10.369-.072 2.645 2.057 4.281 6.047 4.27 11.464-.01 5.417 1.308 13.187-1.346 18.21-2.653 5.022-9.292 7.315-13.334 9.582-4.041 2.267-7.702 2.135-10.347.085-2.648-2.053-4.287-6.022-4.287-11.424 0-5.402 1.64-11.225 4.293-16.261 2.654-5.038 6.33-9.309 10.382-11.584zm1.88 9.322c2.484-1.394 2.838-3.023 4.461-1.761 1.621 1.26 2.626 3.696 2.62 7.016-.005 3.32-1.019 6.893-2.644 9.972-1.627 3.081-3.87 5.681-6.35 7.072-2.48 1.392-4.727 1.31-6.348.053-1.623-1.258-.737-1.64-.736-4.953.001-3.313 2.095-6.363 3.722-9.449 1.625-3.083 2.792-6.555 5.275-7.95z"/>
        <path fill="#FFF" d="M29.322 111.971c2.103-1.18 4.126-1.746 5.987-1.76 1.977-.013 3.756.595 5.243 1.752 1.46 1.135 2.632 2.803 3.424 4.93.743 1.994 1.152 4.4 1.146 7.15-.002 1.262.071 2.696.149 4.194.25 4.854.534 10.374-1.583 14.38-2.21 4.184-6.906 6.508-10.83 8.451-1.007.499-1.961.971-2.813 1.45-2.099 1.176-4.118 1.743-5.974 1.758-1.97.016-3.745-.587-5.231-1.738-1.464-1.134-2.638-2.795-3.432-4.912-.746-1.987-1.157-4.383-1.157-7.129 0-2.722.403-5.542 1.135-8.312a39.703 39.703 0 0 1 3.247-8.313c1.38-2.62 3.036-5.042 4.88-7.1 1.787-1.994 3.75-3.645 5.809-4.801zm5.993-.202c-1.594.011-3.36.514-5.23 1.564-1.913 1.074-3.741 2.614-5.412 4.478-1.754 1.956-3.335 4.272-4.66 6.788a38.145 38.145 0 0 0-3.119 7.983c-.7 2.651-1.086 5.337-1.086 7.915 0 2.554.377 4.767 1.06 6.586.69 1.837 1.69 3.264 2.925 4.221 1.209.937 2.656 1.428 4.266 1.414 1.593-.012 3.356-.516 5.222-1.563.858-.48 1.845-.97 2.887-1.486 3.718-1.84 8.165-4.042 10.14-7.778 1.917-3.63 1.644-8.922 1.405-13.574-.077-1.5-.151-2.936-.148-4.273.005-2.562-.369-4.783-1.049-6.608-.687-1.845-1.687-3.278-2.922-4.24-1.213-.942-2.664-1.438-4.279-1.427zm-4.113 9.524c.776-.435 1.34-.907 1.799-1.289 1.263-1.054 1.952-1.63 3.524-.408.938.73 1.69 1.795 2.197 3.151.467 1.253.725 2.76.722 4.482-.003 1.7-.257 3.455-.712 5.175a24.708 24.708 0 0 1-2.021 5.16c-.86 1.628-1.886 3.128-3.027 4.399-1.113 1.24-2.339 2.266-3.631 2.991-1.332.748-2.62 1.107-3.81 1.117-1.28.011-2.432-.38-3.396-1.128-1.454-1.126-1.385-1.693-1.198-3.25.069-.574.159-1.322.16-2.32 0-2.924 1.462-5.557 2.918-8.176.294-.531.59-1.062.892-1.636.35-.662.678-1.347 1.004-2.024 1.235-2.564 2.424-5.034 4.58-6.244zm2.8-.092c-.509.425-1.136.949-2.036 1.454-1.728.97-2.812 3.222-3.938 5.56-.333.691-.669 1.39-1.029 2.073a91.753 91.753 0 0 1-.91 1.666c-1.358 2.444-2.722 4.9-2.723 7.42 0 1.13-.094 1.906-.166 2.503-.11.917-.15 1.251.6 1.832a3.84 3.84 0 0 0 2.43.805c.927-.008 1.96-.304 3.06-.922 1.139-.639 2.231-1.558 3.233-2.674 1.057-1.177 2.009-2.568 2.807-4.08a23.122 23.122 0 0 0 1.893-4.83c.425-1.603.661-3.224.663-4.779.003-1.532-.22-2.855-.624-3.938-.401-1.074-.982-1.905-1.696-2.461-.58-.45-.927-.16-1.563.371z"/>
        <path fill="#00F" d="M39.238 112.014l4.706 2.71-4.369.509z"/>
        <path fill="#FFF" d="M39.626 111.339l6.75 3.887-7.494.874-.578-5.523 1.322.762zm1.886 2.882l-1.34-.77.097.915 1.243-.145z"/>
        <path fill="#00F" d="M20.39 152.618l5.18 2.892-1.645-3.669z"/>
        <path fill="#FFF" d="M22.565 152.94l1.332.743-.423-.943-.909.2zm2.627 3.25l-6.976-3.893 6.16-1.355 2.868 6.394-2.052-1.145z"/>
        <path fill="#15181A" d="M35.51 115.918c4.051-2.276 7.72-2.133 10.368-.072 2.645 2.056 4.282 6.047 4.27 11.464-.01 5.417-1.667 11.241-4.32 16.264-2.654 5.022-6.318 9.26-10.36 11.528-4.04 2.267-7.702 2.135-10.346.085-2.648-2.053-4.287-6.022-4.287-11.424 0-5.402 1.64-11.225 4.293-16.261 2.654-5.038 6.329-9.309 10.381-11.584zm-.009 7.606c2.484-1.395 4.727-1.308 6.35-.045 1.62 1.26 2.625 3.696 2.62 7.016-.006 3.32-1.02 6.893-2.645 9.971-1.627 3.082-3.87 5.682-6.35 7.073-2.479 1.392-4.727 1.31-6.348.053-1.623-1.258-2.625-3.7-2.624-7.013.001-3.313 1.008-6.878 2.635-9.964 1.625-3.083 3.879-5.697 6.362-7.091z"/>
        <path fill="#FFF" d="M35.127 115.237c2.103-1.181 4.127-1.747 5.988-1.76 1.976-.013 3.756.595 5.243 1.752 1.46 1.135 2.632 2.802 3.423 4.929.744 1.995 1.152 4.4 1.146 7.152-.005 2.727-.414 5.547-1.15 8.314a39.821 39.821 0 0 1-3.26 8.314c-1.382 2.616-3.033 5.024-4.867 7.065-1.782 1.983-3.74 3.624-5.8 4.78-2.098 1.177-4.117 1.744-5.973 1.759-1.971.016-3.746-.587-5.232-1.738-1.463-1.135-2.637-2.795-3.432-4.912-.745-1.987-1.157-4.384-1.157-7.129 0-2.723.404-5.542 1.135-8.312a39.675 39.675 0 0 1 3.247-8.313c1.38-2.62 3.036-5.042 4.88-7.1 1.787-1.995 3.75-3.645 5.81-4.801zm5.993-.202c-1.593.01-3.359.514-5.23 1.564-1.912 1.074-3.741 2.613-5.412 4.478-1.753 1.956-3.334 4.272-4.66 6.788a38.128 38.128 0 0 0-3.118 7.983c-.7 2.65-1.086 5.336-1.087 7.915 0 2.553.377 4.767 1.06 6.585.69 1.838 1.69 3.264 2.925 4.222 1.209.937 2.656 1.427 4.267 1.414 1.592-.013 3.355-.516 5.222-1.563 1.907-1.07 3.732-2.603 5.403-4.462 1.75-1.948 3.326-4.248 4.647-6.748a38.24 38.24 0 0 0 3.132-7.984c.704-2.65 1.096-5.335 1.101-7.917.005-2.562-.368-4.783-1.048-6.609-.687-1.844-1.688-3.278-2.923-4.239-1.213-.943-2.664-1.438-4.279-1.427zm-6 7.808c1.333-.75 2.622-1.108 3.813-1.117 1.28-.009 2.433.386 3.397 1.136.938.73 1.69 1.795 2.197 3.151.468 1.253.725 2.76.722 4.482-.003 1.7-.256 3.455-.712 5.175a24.7 24.7 0 0 1-2.021 5.16c-.86 1.628-1.886 3.127-3.027 4.398-1.113 1.24-2.338 2.267-3.631 2.993-1.332.747-2.62 1.106-3.81 1.116-1.28.01-2.432-.38-3.396-1.128-.941-.73-1.694-1.794-2.2-3.147-.469-1.254-.728-2.761-.727-4.483.001-1.697.252-3.45.707-5.17a24.655 24.655 0 0 1 2.016-5.157c.857-1.624 1.886-3.127 3.033-4.405 1.119-1.247 2.348-2.28 3.638-3.004zm3.819.44c-.924.007-1.955.303-3.056.922-1.145.642-2.24 1.564-3.242 2.68-1.057 1.178-2.011 2.575-2.812 4.094a23.053 23.053 0 0 0-1.888 4.827c-.424 1.6-.657 3.22-.658 4.773 0 1.53.223 2.855.629 3.94.402 1.073.98 1.904 1.693 2.456a3.838 3.838 0 0 0 2.43.805c.927-.008 1.96-.305 3.06-.922 1.139-.64 2.232-1.558 3.233-2.674 1.057-1.177 2.009-2.568 2.808-4.081a23.08 23.08 0 0 0 1.892-4.83c.425-1.602.661-3.223.664-4.778.002-1.532-.22-2.855-.625-3.938-.4-1.074-.981-1.905-1.696-2.461a3.843 3.843 0 0 0-2.432-.812zM163.7 66.591l13.852-7.456.739 1.374-13.851 7.456z"/>
    </g>
</svg>
