<svg xmlns="http://www.w3.org/2000/svg" width="181" height="180" viewBox="0 0 181 180">
    <g fill="none" fill-rule="evenodd">
        <path fill="#0CDA8F" d="M25.922 128.908c-.901.505-1.637 1.95-1.636 3.214 0 1.263.737 1.883 1.639 1.378.901-.506 1.629-1.943 1.628-3.208-.002-1.266-.73-1.889-1.631-1.384zm13.16 38.721c-.905.505-1.64 1.959-1.637 3.244.004 1.284.746 1.905 1.651 1.397.906-.508 1.641-1.958 1.637-3.242-.005-1.284-.747-1.904-1.651-1.399zm-.03-9.272c-.903.507-1.637 1.957-1.633 3.237.004 1.28.744 1.901 1.648 1.394.904-.507 1.638-1.957 1.634-3.235-.005-1.28-.745-1.902-1.648-1.396zm-.029-9.231c-.901.506-1.634 1.95-1.63 3.225.004 1.274.743 1.892 1.645 1.385.902-.505 1.635-1.95 1.63-3.223-.004-1.274-.743-1.893-1.645-1.387zm-.028-9.2c-.9.504-1.632 1.945-1.628 3.212.003 1.267.741 1.888 1.642 1.382.9-.505 1.632-1.948 1.628-3.217-.005-1.27-.743-1.883-1.642-1.378zm-.03-9.172c-.898.504-1.628 1.942-1.624 3.206.003 1.265.74 1.879 1.64 1.375.898-.505 1.628-1.947 1.624-3.211-.004-1.264-.741-1.874-1.64-1.37zm-.028-9.15c-.897.503-1.626 1.943-1.622 3.205.004 1.261.739 1.878 1.636 1.375.898-.504 1.627-1.942 1.622-3.204-.004-1.261-.74-1.88-1.636-1.376zm-6.419 49.704c-.906.508-1.641 1.963-1.639 3.249.002 1.285.74 1.909 1.648 1.4.908-.51 1.634-1.956 1.63-3.241-.002-1.285-.732-1.917-1.639-1.408zm-.017-9.279c-.905.508-1.638 1.957-1.636 3.237.002 1.281.739 1.908 1.645 1.402.906-.505 1.633-1.954 1.632-3.234-.001-1.28-.736-1.913-1.641-1.405zm-.018-9.233c-.903.507-1.635 1.95-1.633 3.226.002 1.275.738 1.895 1.642 1.388.905-.507 1.632-1.948 1.63-3.223-.004-1.275-.735-1.898-1.639-1.39zm-.017-9.207c-.902.506-1.633 1.946-1.63 3.214.002 1.267.736 1.89 1.639 1.385.903-.507 1.629-1.95 1.626-3.217-.003-1.267-.733-1.888-1.635-1.382zm-.017-9.172c-.9.505-1.63 1.942-1.628 3.207.002 1.265.735 1.882 1.637 1.376.9-.505 1.626-1.947 1.623-3.21-.003-1.262-.732-1.878-1.632-1.373zm-.018-9.162c-.898.504-1.626 1.94-1.624 3.205.002 1.266.734 1.883 1.633 1.378.9-.505 1.624-1.94 1.62-3.203-.002-1.262-.73-1.885-1.629-1.38zm-6.48 49.733c-.91.51-1.651 1.966-1.65 3.253 0 1.286.743 1.914 1.653 1.405.91-.51 1.643-1.96 1.642-3.247-.001-1.286-.736-1.92-1.645-1.41zm-.006-9.28c-.907.506-1.648 1.96-1.648 3.24 0 1.282.743 1.906 1.651 1.397.908-.508 1.64-1.958 1.64-3.24-.002-1.28-.736-1.903-1.643-1.397zm-.006-9.24c-.906.508-1.645 1.956-1.645 3.23 0 1.273.741 1.896 1.648 1.388.907-.508 1.638-1.955 1.637-3.228-.002-1.273-.734-1.897-1.64-1.39zm-.006-9.208c-.904.506-1.642 1.94-1.642 3.212 0 1.271.74 1.892 1.645 1.385.905-.507 1.635-1.953 1.634-3.222-.001-1.268-.732-1.882-1.637-1.375zm-.005-9.179c-.903.506-1.64 1.942-1.64 3.206 0 1.263.739 1.882 1.642 1.376.904-.506 1.632-1.944 1.631-3.21 0-1.265-.731-1.877-1.633-1.372z"/>
        <path fill="#15181A" d="M60.954 4.954c2.204-1.238 4.337-1.889 6.368-2.066 1.993-.174 3.885.11 5.649.743l.04-.074.637.337c.427.178.84.374 1.24.586.414.22.822.461 1.224.722a3284.557 3284.557 0 0 1 12.11 6.496l1.312.708-1.354.624a116.653 116.653 0 0 1-4.154 1.82 25.158 25.158 0 0 1 1.475 4.16c.318 1.244.52 2.475.598 3.656 1.473-3.822 3.15-7.305 5.226-10.408 2.848-4.255 6.437-7.79 11.263-10.493 1.7-.952 3.46-1.512 5.211-1.697a12.164 12.164 0 0 1 4.66.407l.053-.102.622.321c.64.225 1.26.5 1.858.823.602.326 1.188.704 1.753 1.133l14.567 7.895-1.35.623c-1.27.587-2.51 1.136-3.716 1.646-.966.409-1.882.78-2.748 1.115.253 1.062.454 2.177.596 3.346.165 1.346.251 2.78.252 4.3 0 5.453-.944 11.098-2.598 16.47-1.72 5.587-4.212 10.89-7.21 15.382-1.984 2.974-3.715 5.143-5.486 6.873-1.787 1.743-3.603 3.032-5.746 4.235l-2.765 1.55c-6.065 3.404-12.13 6.808-18.19 10.211l-15.231 8.55-18.385 10.313-15.024 8.429c-2.625 1.471-5.242 2.94-7.856 4.407l-4.197 2.355c.183 1.397.269 2.827.257 4.29-.014 1.64-.149 3.3-.406 4.979l-.162 1.058-13.008-7.19-.03-.01a8.126 8.126 0 0 1-2.522-1.4l-.21-.117-.032-.087c-2.376-2.092-3.383-5.468-3.336-9.287.038-3.019.734-6.323 1.93-9.476 1.196-3.154 2.894-6.168 4.934-8.603 2.724-3.25 6.07-5.487 9.686-5.712.025-.383.063-.771.113-1.163.623-4.9 3.167-10.385 6.712-14.61 3.595-4.284 8.238-7.301 13.01-7.185l.146.004c-.918-7.756 1.386-18.97 5.673-29.047 4.063-9.553 9.924-18.126 16.54-21.84"/>
        <path fill="#FFF" d="M20.576 78.377l13.275 7.189-.706 1.312-13.275-7.19z"/>
        <path fill="#0CDA8F" d="M27.011 18.766c-3.262 7.465-6.52 14.925-9.776 22.374L7.472 63.471l-4.16 2.335c3.252-7.436 6.505-14.882 9.76-22.33 3.255-7.448 6.513-14.91 9.774-22.373l4.165-2.337M6.417 30.584c3.55-1.992 6.433-.03 6.435 4.384.002 4.414-2.88 9.599-6.426 11.59C2.88 48.55.004 46.59 0 42.178c-.004-4.414 2.866-9.602 6.417-11.594zm.002 3.467c2.01-1.127 3.64-.014 3.64 2.482.002 2.496-1.624 5.434-3.635 6.561-2.01 1.128-3.64.02-3.641-2.478-.002-2.497 1.624-5.437 3.636-6.565zM24.083 38.312c3.55-1.99 6.433-.039 6.432 4.37 0 4.409-2.886 9.6-6.432 11.59-3.546 1.99-6.42.033-6.42-4.375-.002-4.408 2.87-9.594 6.42-11.585zm0 3.466c2.007-1.127 3.636-.018 3.636 2.474s-1.63 5.43-3.636 6.558c-2.006 1.129-3.636.016-3.636-2.477s1.629-5.428 3.636-6.555z"/>
        <path fill="#FFF" d="M60.954 4.954c2.204-1.238 4.337-1.889 6.368-2.066 1.993-.174 3.885.11 5.649.743l.04-.074.637.337c.427.178.84.374 1.24.586.414.22.822.461 1.224.722a3284.557 3284.557 0 0 1 12.11 6.496l1.312.708-1.354.624a116.653 116.653 0 0 1-4.154 1.82 25.158 25.158 0 0 1 1.475 4.16c.318 1.244.52 2.475.598 3.656 1.473-3.822 3.15-7.305 5.226-10.408 2.848-4.255 6.437-7.79 11.263-10.493 1.7-.952 3.46-1.512 5.211-1.697a12.164 12.164 0 0 1 4.66.407l.053-.102.622.321c.64.225 1.26.5 1.858.823.602.326 1.188.704 1.753 1.133l14.567 7.895-1.35.623c-1.27.587-2.51 1.136-3.716 1.646-.966.409-1.882.78-2.748 1.115.253 1.062.454 2.177.596 3.346.165 1.346.251 2.78.252 4.3 0 5.453-.944 11.098-2.598 16.47-1.72 5.587-4.212 10.89-7.21 15.382-1.984 2.974-3.715 5.143-5.486 6.873-1.787 1.743-3.603 3.032-5.746 4.235l-2.765 1.55c-6.065 3.404-12.13 6.808-18.19 10.211l-15.231 8.55-18.385 10.313-15.024 8.429c-2.625 1.471-5.242 2.94-7.856 4.407l-4.197 2.355c.183 1.397.269 2.827.257 4.29-.014 1.64-.149 3.3-.406 4.979l-.162 1.058-13.008-7.19-.03-.01a8.126 8.126 0 0 1-2.522-1.4l-.21-.117-.032-.087c-2.376-2.092-3.383-5.468-3.336-9.287.038-3.019.734-6.323 1.93-9.476 1.196-3.154 2.894-6.168 4.934-8.603 2.724-3.25 6.07-5.487 9.686-5.712.025-.383.063-.771.113-1.163.623-4.9 3.167-10.385 6.712-14.61 3.595-4.284 8.238-7.301 13.01-7.185l.146.004c-.918-7.756 1.386-18.97 5.673-29.047 4.063-9.553 9.924-18.126 16.54-21.84zm6.496-.579c-1.828.16-3.76.752-5.768 1.879-6.309 3.542-11.951 11.842-15.9 21.123-4.362 10.256-6.633 21.66-5.445 29.164l.155.98-.983-.126a9.29 9.29 0 0 0-.95-.071c-4.271-.104-8.505 2.69-11.831 6.654-3.375 4.021-5.793 9.218-6.381 13.84a16.96 16.96 0 0 0-.133 1.72l-.018.735-.734-.009c-3.394-.042-6.612 2.057-9.246 5.2-1.934 2.308-3.546 5.17-4.684 8.171-1.138 3.001-1.8 6.13-1.836 8.968-.043 3.47.848 6.49 2.956 8.257l.098.082c.28.226.587.434.923.623a7 7 0 0 0 1.126.506l.064.023.093.031 11.225 6.205c.155-1.261.237-2.495.247-3.702a29.37 29.37 0 0 0-.317-4.57l-.075-.507 5.09-2.856 7.856-4.408 15.024-8.428 18.385-10.314 15.23-8.55 18.19-10.21 2.767-1.55c2.036-1.144 3.755-2.362 5.436-4.002 1.695-1.655 3.364-3.749 5.288-6.634 2.917-4.373 5.344-9.54 7.023-14.991 1.614-5.24 2.535-10.735 2.534-16.032 0-1.434-.085-2.811-.246-4.127a28.115 28.115 0 0 0-.72-3.79l-.171-.65.63-.237c1.063-.4 2.168-.842 3.316-1.328.735-.311 1.506-.647 2.312-1.01l-12.045-6.528-.047-.036a12.252 12.252 0 0 0-1.602-1.04 11.45 11.45 0 0 0-1.476-.673l-.227-.078a10.7 10.7 0 0 0-4.633-.53c-1.547.164-3.111.664-4.633 1.516-4.608 2.582-8.036 5.957-10.755 10.021-2.706 4.043-4.72 8.775-6.5 14.089l-.014.231c.032.288.04.598.047.882 0 .006-.05.008-.126.007-.126 1.053-.324 1.427-.596 1.427a1.04 1.04 0 0 1-.155-.011l-1.034 3.109.357-5.706c.015-.239.07-.421.16-.553l.16-.474a11.863 11.863 0 0 1-.212-2.335c0-1.365-.205-2.85-.594-4.374a23.95 23.95 0 0 0-1.705-4.596l-.353-.72.744-.298a90.183 90.183 0 0 0 3.453-1.466 3159.602 3159.602 0 0 0-6.147-3.307 1869.65 1869.65 0 0 0-4.668-2.495l-.034-.018-.022-.014a14.463 14.463 0 0 0-2.235-1.191l-.066-.028a11.782 11.782 0 0 0-5.572-.87z"/>
        <path fill="#4630EB" d="M99.002 30.735c-.004 10.085-.036 2.25-.108 3.406 3.634-10.924 8.235-19.458 17.668-24.743 9.434-5.285 20.647 2.204 20.65 19.16.002 10.966-3.882 22.744-9.682 31.438-3.909 5.86-6.799 8.525-10.978 10.871l-2.766 1.551c-11.148 6.256-22.294 12.516-33.421 18.76-11.146 6.255-22.285 12.5-33.409 18.742-4.904 2.75-9.783 5.49-14.663 8.227-.17.094-.338.173-.507.267-2.466 1.385-6.378 2.472-9.622 1.343C9.773 115.443 19.95 86.34 33.08 86.503c.246-10.099 10.153-24.133 20.132-22.863-2.308-14.57 8.134-43.43 21.716-51.053 13.58-7.624 24.078 8.062 24.074 18.148z"/>
        <path fill="#FFF" d="M74.203 11.576c2.626-1.474 5.154-2.115 7.531-2.114 3.176.001 6.056 1.148 8.527 2.986 2.44 1.816 4.48 4.304 6.004 7.02 1.786 3.182 2.875 6.696 3.083 9.821 1.473-3.821 3.15-7.305 5.227-10.408 2.848-4.256 6.437-7.79 11.263-10.494 2.118-1.186 4.329-1.763 6.5-1.764 2.375 0 4.691.691 6.773 2.03 2.063 1.326 3.895 3.286 5.323 5.836 1.957 3.491 3.16 8.1 3.161 13.709.001 5.453-.943 11.097-2.597 16.47-1.721 5.587-4.212 10.888-7.21 15.382-1.984 2.974-3.715 5.143-5.487 6.872-1.786 1.744-3.602 3.032-5.745 4.235l-2.766 1.551c-6.085 3.415-12.17 6.83-18.251 10.245-5.06 2.84-10.117 5.68-15.17 8.515-6.111 3.43-12.222 6.857-18.328 10.282l-15.08 8.46c-2.624 1.471-5.24 2.94-7.853 4.406l-6.81 3.82c-.05.028-.164.087-.28.146-.053.027-.107.055-.228.122a15.523 15.523 0 0 1-5.292 1.783c-1.643.23-3.356.163-4.939-.388-3.167-1.102-4.982-3.66-5.72-6.928-.625-2.77-.464-6.054.306-9.372a32.414 32.414 0 0 1 3.93-9.537c3.013-4.875 7.251-8.552 11.934-8.844.025-.384.062-.772.112-1.163.624-4.9 3.168-10.385 6.713-14.611 3.594-4.283 8.238-7.301 13.01-7.185l.145.005c-.917-7.756 1.387-18.97 5.673-29.048 4.064-9.553 9.925-18.126 16.541-21.84zm7.531-.627c-2.126 0-4.408.584-6.802 1.928-6.31 3.541-11.952 11.841-15.9 21.122-4.362 10.257-6.634 21.661-5.445 29.165l.155.98-.983-.126a9.228 9.228 0 0 0-.95-.072c-4.272-.104-8.506 2.69-11.832 6.654-3.374 4.022-5.792 9.219-6.38 13.841a16.86 16.86 0 0 0-.133 1.72l-.018.735-.735-.01c-4.38-.054-8.457 3.443-11.371 8.158a30.893 30.893 0 0 0-3.743 9.088c-.723 3.113-.88 6.169-.305 8.713.626 2.776 2.138 4.937 4.757 5.85 1.337.464 2.814.517 4.245.317a13.99 13.99 0 0 0 4.767-1.608c.05-.028.165-.087.28-.146.054-.027.108-.055.228-.122l6.81-3.82 7.853-4.406c5.024-2.82 10.05-5.639 15.08-8.46A97827.201 97827.201 0 0 0 94.81 81.652c6.081-3.414 12.166-6.83 18.251-10.244l2.766-1.551c2.037-1.143 3.756-2.361 5.436-4.002 1.696-1.655 3.364-3.749 5.289-6.633 2.917-4.373 5.344-9.54 7.023-14.992 1.614-5.24 2.534-10.735 2.534-16.032-.002-5.333-1.134-9.695-2.975-12.98-1.306-2.332-2.967-4.116-4.828-5.312-1.842-1.184-3.883-1.796-5.969-1.795-1.914 0-3.876.516-5.77 1.577-4.608 2.581-8.036 5.957-10.756 10.02-2.705 4.044-4.72 8.776-6.5 14.09l-.013.23c.032.288.04.598.046.883 0 .006-.05.007-.125.006-.127 1.054-.325 1.427-.596 1.427-.056 0-.107-.004-.155-.01l-1.034 3.109.356-5.706c.015-.24.07-.424.161-.557l.16-.47a11.896 11.896 0 0 1-.213-2.336c.001-3.129-1.057-6.834-2.934-10.176-1.43-2.548-3.33-4.873-5.59-6.554-2.23-1.66-4.812-2.694-7.64-2.695z"/>
        <path fill="#15181A" d="M46.575 167.638a3.893 3.893 0 0 1-.11-.977c-.03-37.116-.066-52.766-.101-89.882 10.34-5.78 20.726-11.6 31.08-17.413 10.328-5.8 20.71-11.605 31.066-17.418-.018 43.615 0 65.764-.019 109.379-10.34 5.802-20.68 11.612-31.005 17.403-4.578 2.568-9.159 5.137-13.737 7.707-.502.281-.92.435-1.27.487a11.675 11.675 0 0 1-4.303.816c-5.923 0-10.817-4.396-11.6-10.102"/>
        <path fill="#FFF" d="M46.587 167.948a4.032 4.032 0 0 1-.091-.506 5.37 5.37 0 0 1-.032-.613c-.016-20.444-.034-34.375-.052-48.968-.016-11.901-.032-24.242-.048-40.914v-.436l.382-.214a18870.426 18870.426 0 0 0 31.077-17.413c5.303-2.977 10.62-5.956 15.94-8.937 5.042-2.825 10.087-5.652 15.126-8.48l1.109-.623-.001 1.273c-.009 21.737-.01 38.142-.01 54.53v4.062h-1.486v-4.061c0-16.067 0-32.151.009-53.259-4.67 2.621-9.346 5.24-14.019 7.859-5.32 2.98-10.636 5.96-15.939 8.937a18526.375 18526.375 0 0 1-30.7 17.199c.015 16.45.031 28.68.047 40.477.018 14.593.037 28.524.052 48.968 0 .15.01.298.026.444.016.133.037.248.062.346l.012.045.006.043a10.944 10.944 0 0 0 3.666 6.763 10.92 10.92 0 0 0 7.196 2.692c.71 0 1.398-.065 2.059-.19.61-.116 1.862-.47 2.558-.734.178-.068.375-.161.592-.283l6.869-3.854 6.869-3.853c5.853-3.283 11.711-6.572 17.572-9.862l13.054-7.328c.004-10.202.006-19.229.007-27.637h1.487c0 8.529-.003 17.693-.008 28.074v.438l-.378.212c-4.479 2.513-8.957 5.028-13.434 7.541-5.86 3.29-11.718 6.58-17.572 9.863l-6.868 3.853-6.87 3.853c-1.004.564-2.49.969-3.604 1.18-.762.145-1.542.22-2.333.22a12.406 12.406 0 0 1-8.176-3.06 12.438 12.438 0 0 1-4.156-7.647M40.446 56.299l13.275 7.189-.706 1.312-13.275-7.19z"/>
        <path fill="#ADB5BD" d="M65.203 175.132l-.84.472c.69-.368 1.337-.804 1.933-1.298.194-.172.379-.353.555-.542a14.24 14.24 0 0 0 1.841-2.175 11.75 11.75 0 0 0 1.754-4.902l.001-.008.007-.064c.018-.165.034-.332.047-.5l.005-.06c.018-.27.027-.542.027-.817l-.002-1.797a42.77 42.77 0 0 1-.002-1.275v-.007l-.005-1.153c-.006-.555-.011 1.487-.017-4.018l-.01-2.091a39113.194 39113.194 0 0 0 61.425-34.427l2.225-1.25-.001 2.552-.002 3.609c0 .25.015.568-.005.827-.013 1.4 0 2.807 0 4.207 0 4.41-2.156 8.482-5.808 10.94l-.05.033-.052.029c-20.897 11.751-41.811 23.475-62.718 35.208-.155.091-.312.18-.47.264l-1.173-.014-.01-.018-.474.253-.462-.904c.84-.28 1.6-.638 2.28-1.074"/>
        <path fill="#FFF" d="M58.507 86.6A8105.5 8105.5 0 0 0 71.1 79.545l.113-.063c.009 8.81.018 15.491.026 22.064a9240.312 9240.312 0 0 1-12.732 7.135V86.6z"/>
        <path fill="#FFF" d="M58.507 85.916a10340.403 10340.403 0 0 0 12.229-6.854l1.219-.685.001 1.272.025 20.921.002 1.58-.38.214a8697.374 8697.374 0 0 1-13.096 7.337v-1.706a12549.094 12549.094 0 0 0 11.988-6.719l-.001-.706c-.008-5.89-.015-11.959-.023-19.65a8243.456 8243.456 0 0 1-11.964 6.701v-1.705zM76.367 79.993l22.552-12.655v1.71L77.096 81.292l-.73-1.3zm-17.86 70.022l40.412-22.677v1.71l-40.412 22.677v-1.71zm0-8.706l39.123-21.955.73 1.3-39.853 22.364v-1.71zm0-8.55l38.726-21.73.729 1.3-39.455 22.14v-1.71zm0-8.548l40.412-22.678v1.71L58.507 125.92v-1.71zm0-8.55l40.412-22.677v1.71l-40.412 22.677v-1.71zm18.192-18.757l22.22-12.469v1.71l-21.491 12.06-.73-1.3zm-.206-8.433l22.426-12.584v1.709L77.222 89.771l-.73-1.3z"/>
        <path fill="#0CDA8F" d="M97.143 105.171c13.844-7.781 27.711-15.568 41.556-23.343a170178.57 170178.57 0 0 1 41.54-23.321l-.004 13.248-.004 12.598c-13.85 7.776-27.692 15.557-41.532 23.334a179830.87 179830.87 0 0 0-41.549 23.358c0-4.412-.002-8.192-.003-12.612l-.004-13.262zm59.962-27.83c1.877-1.054 3.747-2.108 5.633-3.166.34 2.275.689 4.554 1.03 6.826.34 2.276.688 4.552 1.036 6.822-1.886 1.06-3.763 2.113-5.641 3.167-.349-2.27-.701-4.546-1.037-6.822-.336-2.272-.681-4.55-1.021-6.826zm-7.03 3.947l5.642-3.167c.34 2.275.685 4.554 1.02 6.827.337 2.275.69 4.551 1.038 6.822-1.886 1.059-3.755 2.114-5.633 3.168-.348-2.27-.697-4.547-1.038-6.822-.34-2.273-.689-4.552-1.03-6.828zm-7.038 3.952l5.642-3.168c.34 2.275.69 4.554 1.03 6.827.34 2.276.689 4.552 1.037 6.823l-5.641 3.17c-.349-2.272-.697-4.548-1.038-6.824-.34-2.273-.69-4.552-1.03-6.828zm-7.03 3.946c1.878-1.055 3.756-2.11 5.634-3.161.34 2.275.69 4.554 1.03 6.827.34 2.276.69 4.552 1.038 6.823l-5.633 3.164c-.349-2.27-.698-4.544-1.038-6.822-.341-2.276-.69-4.552-1.03-6.831zm-7.038 3.954c1.878-1.054 3.756-2.11 5.642-3.17.341 2.279.69 4.555 1.03 6.83.342 2.28.69 4.553 1.04 6.824-1.886 1.063-3.764 2.118-5.642 3.174-.349-2.274-.698-4.548-1.039-6.827-.34-2.276-.69-4.552-1.03-6.83zm-7.038 3.95a3398.77 3398.77 0 0 0 5.642-3.165c.341 2.278.69 4.555 1.031 6.83.341 2.279.69 4.553 1.04 6.827l-5.634 3.166a3361.5 3361.5 0 0 1-1.04-6.826c-.344-2.277-.698-4.553-1.039-6.831zm-7.038 3.956l5.642-3.171c.341 2.279.695 4.555 1.04 6.831.345 2.278.69 4.553 1.04 6.827-1.887 1.06-3.764 2.116-5.65 3.171-.35-2.274-.7-4.548-1.04-6.826-.341-2.276-.69-4.553-1.032-6.832zm-7.046 3.957c1.878-1.056 3.764-2.112 5.65-3.172.342 2.279.691 4.555 1.032 6.832.341 2.278.69 4.552 1.04 6.826l-5.642 3.173c-.35-2.274-.694-4.549-1.04-6.827-.345-2.277-.699-4.553-1.04-6.832zm-4.96 2.789l3.572-2.009c.341 2.279.687 4.556 1.032 6.832.346 2.28.7 4.554 1.049 6.828-1.894 1.06-3.772 2.117-5.65 3.173l-.002-7.412-.001-7.412zm-3.068-.889c13.137-7.376 25.759-14.467 38.88-21.837 13.12-7.369 26.242-14.736 39.354-22.102l-.003 10.013-.003 10.009c-13.11 7.37-26.23 14.74-39.348 22.11-13.12 7.373-25.739 14.467-38.874 21.847l-.003-10.019-.003-10.021z"/>
    </g>
</svg>
